<svg xmlns="http://www.w3.org/2000/svg" width="45.165" height="45.165" viewBox="0 0 45.165 45.165"><defs><style>.a{fill:#d42452;}</style></defs><path class="a" d="M27.778,16.263l1.509,4.526-8.249,8.249a2.185,2.185,0,0,0,3.091,3.091l8.249-8.249L36.9,25.388a1.874,1.874,0,0,0,1.916-.452l5.8-5.8a1.872,1.872,0,0,0-.732-3.1L38.816,14.35,37.127,9.282a1.872,1.872,0,0,0-3.1-.732l-5.8,5.8a1.874,1.874,0,0,0-.453,1.916Zm-5.195,4.85a9.422,9.422,0,0,1,2.028.231L25.953,20l-.94-2.818c-.022-.066-.018-.134-.037-.2a14.043,14.043,0,1,0,11.206,11.2c-.066-.019-.136-.011-.2-.033l-2.817-.939-1.342,1.342a9.464,9.464,0,1,1-9.239-7.441Zm21.529,2.65-3.233,3.233a4.72,4.72,0,0,1-.393.323A18.29,18.29,0,1,1,25.87,12.682a4.834,4.834,0,0,1,.3-.4L29.4,9.053a22.581,22.581,0,1,0,14.709,14.71Z" transform="translate(0 -8)"/></svg>