<svg xmlns="http://www.w3.org/2000/svg" width="44.842" height="33.631" viewBox="0 0 44.842 33.631"><defs><style>.a{fill:#d42452;}</style></defs><path class="a" d="M34.752,89.223h1.962A1.206,1.206,0,0,0,37.835,88.1V67.924A1.206,1.206,0,0,0,36.714,66.8H34.752a1.206,1.206,0,0,0-1.121,1.121V88.1A1.206,1.206,0,0,0,34.752,89.223Zm-16.816,0H19.9A1.206,1.206,0,0,0,21.02,88.1V70.726A1.206,1.206,0,0,0,19.9,69.605H17.937a1.206,1.206,0,0,0-1.121,1.121V88.1A1.206,1.206,0,0,0,17.937,89.223Zm8.408,0h1.962A1.206,1.206,0,0,0,29.427,88.1V76.331a1.206,1.206,0,0,0-1.121-1.121H26.344a1.206,1.206,0,0,0-1.121,1.121V88.1A1.206,1.206,0,0,0,26.344,89.223Zm17.1,4.2H4.2V65.4A1.4,1.4,0,0,0,2.8,64H1.4A1.4,1.4,0,0,0,0,65.4V94.829a2.8,2.8,0,0,0,2.8,2.8H43.44a1.4,1.4,0,0,0,1.4-1.4v-1.4A1.4,1.4,0,0,0,43.44,93.427Zm-33.911-4.2h1.962A1.206,1.206,0,0,0,12.612,88.1V81.937a1.206,1.206,0,0,0-1.121-1.121H9.529a1.206,1.206,0,0,0-1.121,1.121V88.1A1.206,1.206,0,0,0,9.529,89.223Z" transform="translate(0 -64)"/></svg>