<svg xmlns="http://www.w3.org/2000/svg" width="45.234" height="40.208" viewBox="0 0 45.234 40.208"><defs><style>.a{fill:#d42452;}</style></defs><path class="a" d="M44.648,13.141l-2.5-2.5a2,2,0,0,0-2.828,0l-2.14,2.14,5.331,5.331,2.14-2.14A2,2,0,0,0,44.648,13.141ZM25.841,24.03a5.024,5.024,0,0,0-1.277,2.129l-1.2,4H21.424a.883.883,0,0,1-.8-.51,3.526,3.526,0,0,0-5.183-1.113l-1.09-3.268a1.886,1.886,0,0,0-3.578,0l-1.43,4.292a.873.873,0,0,1-.832.6H7.539a1.256,1.256,0,0,0,0,2.513h.975a3.388,3.388,0,0,0,3.217-2.319l.834-2.5,1.32,3.964a1.256,1.256,0,0,0,1.1.855c.03,0,.059,0,.088,0a1.257,1.257,0,0,0,1.124-.7l.6-1.2a.857.857,0,0,1,.788-.486.869.869,0,0,1,.8.513,3.378,3.378,0,0,0,3.033,1.872h4.963v3.77H3.769V3.777H16.331v8.166a1.88,1.88,0,0,0,1.885,1.884h8.17v6.125l3.769-3.736V10.364A3.79,3.79,0,0,0,29.043,7.7L22.455,1.107A3.769,3.769,0,0,0,19.794,0H3.769A3.782,3.782,0,0,0,0,3.777V36.439a3.77,3.77,0,0,0,3.769,3.769H26.381a3.775,3.775,0,0,0,3.775-3.769V30.533L40.731,19.886,35.4,14.555ZM20.1,4.083l5.975,5.975H20.1Z"/></svg>