<svg xmlns="http://www.w3.org/2000/svg" width="45.234" height="36.188" viewBox="0 0 45.234 36.188"><defs><style>.a{fill:#d42452;}</style></defs><path class="a" d="M20.465,10.2l3.54,1.011a.594.594,0,0,1-.163,1.166H21.525a1.818,1.818,0,0,1-.728-.155.876.876,0,0,0-1,.141L18.564,13.6a.848.848,0,0,0,.106,1.3,5.2,5.2,0,0,0,2.247.813V16.96a1.134,1.134,0,0,0,1.131,1.131h1.131a1.134,1.134,0,0,0,1.131-1.131V15.716a3.971,3.971,0,0,0,3.484-4.452,4.146,4.146,0,0,0-3.032-3.371l-3.54-1.011a.594.594,0,0,1,.163-1.166H23.7a1.818,1.818,0,0,1,.728.155.876.876,0,0,0,1-.141l1.237-1.237a.848.848,0,0,0-.106-1.3,5.2,5.2,0,0,0-2.247-.813V1.131A1.134,1.134,0,0,0,23.179,0H22.048a1.134,1.134,0,0,0-1.131,1.131V2.374a3.971,3.971,0,0,0-3.484,4.452A4.136,4.136,0,0,0,20.465,10.2Zm20.02-3.4a5.092,5.092,0,0,0-5.434,5.074s-.007,2.756-.014,5.371A5.089,5.089,0,0,0,28.2,18.373l-5.074,6.593a7.172,7.172,0,0,0-.509.791,8.38,8.38,0,0,0-.509-.791l-5.074-6.593A5.068,5.068,0,0,0,13,16.395a5.154,5.154,0,0,0-2.813.848c-.007-2.622-.014-5.371-.014-5.371A5.092,5.092,0,0,0,4.742,6.8,5.2,5.2,0,0,0,0,12.049V25.581a7.966,7.966,0,0,0,1.731,4.947l4.148,5.229a1.14,1.14,0,0,0,.883.431H7.915a1.134,1.134,0,0,0,1.131-1.131A2.353,2.353,0,0,0,8.537,33.6L4.381,28.408a4.5,4.5,0,0,1-.989-2.827V11.936a1.727,1.727,0,0,1,1.357-1.724,1.7,1.7,0,0,1,2.035,1.661s.014,7.137.021,9.37A2.221,2.221,0,0,0,7.356,22.7l5.406,6.544a1.56,1.56,0,0,0,2.339.071,1.619,1.619,0,0,0,.057-2.063l-3.5-4.735a1.7,1.7,0,0,1,.311-2.381A1.674,1.674,0,0,1,13,19.78a1.7,1.7,0,0,1,1.35.664l5.067,6.586a4.527,4.527,0,0,1,.94,2.756v5.265a1.134,1.134,0,0,0,1.131,1.131h2.261a1.134,1.134,0,0,0,1.131-1.131V29.793a4.527,4.527,0,0,1,.94-2.756l5.067-6.586a1.71,1.71,0,0,1,1.35-.664,1.674,1.674,0,0,1,1.032.353,1.7,1.7,0,0,1,.311,2.381l-3.5,4.735a1.628,1.628,0,0,0,.057,2.063,1.561,1.561,0,0,0,2.339-.071l5.406-6.544a2.259,2.259,0,0,0,.551-1.456c-.007-2.24.007-9.377.007-9.377a1.7,1.7,0,0,1,2.035-1.661,1.733,1.733,0,0,1,1.357,1.724V25.581a4.494,4.494,0,0,1-.989,2.82L36.7,33.588a2.325,2.325,0,0,0-.509,1.456,1.134,1.134,0,0,0,1.131,1.131h1.152a1.108,1.108,0,0,0,.883-.431L43.5,30.514a7.951,7.951,0,0,0,1.731-4.947V12.049A5.21,5.21,0,0,0,40.485,6.8Z"/></svg>