<svg xmlns="http://www.w3.org/2000/svg" xmlns:xlink="http://www.w3.org/1999/xlink" width="388" height="457" viewBox="0 0 388 457"><defs><style>.a{clip-path:url(#a);}.b{fill:#be1d47;}.b,.c,.d,.e,.f{opacity:0.646;}.c{fill:#ce1f4c;}.d{fill:#cb1d4a;}.e{fill:#c61f4b;}.f{fill:#cb214d;}</style><clipPath id="a"><rect width="388" height="457"/></clipPath></defs><g class="a"><path class="b" d="M131.267,104.65l-27.189,15.7-27.189-15.7V73.256l27.189-15.7,27.189,15.7Z" transform="translate(29.112 62.441)"/><path class="c" d="M131.267,104.65l-27.189,15.7-27.189-15.7V73.256l27.189-15.7,27.189,15.7Z" transform="translate(-32.889 62.441)"/><path class="b" d="M131.267,104.65l-27.189,15.7-27.189-15.7V73.256l27.189-15.7,27.189,15.7Z" transform="translate(91.111 62.441)"/><path class="b" d="M131.267,104.65l-27.189,15.7-27.189-15.7V73.256l27.189-15.7,27.189,15.7Z" transform="translate(-1.889 11.441)"/><path class="b" d="M131.267,104.65l-27.189,15.7-27.189-15.7V73.256l27.189-15.7,27.189,15.7Z" transform="translate(-63.889 11.441)"/><path class="c" d="M131.267,104.65l-27.189,15.7-27.189-15.7V73.256l27.189-15.7,27.189,15.7Z" transform="translate(-32.889 -39.559)"/><path class="b" d="M131.267,104.65l-27.189,15.7-27.189-15.7V73.256l27.189-15.7,27.189,15.7Z" transform="translate(-0.89 114.441)"/><path class="b" d="M131.267,104.65l-27.189,15.7-27.189-15.7V73.256l27.189-15.7,27.189,15.7Z" transform="translate(92.111 165.441)"/><path class="d" d="M259.647,317.426l-27.189,15.7-27.189-15.7V286.031l27.189-15.7,27.189,15.7Z" transform="translate(-67.269 -98.334)"/><path class="d" d="M259.647,317.426l-27.189,15.7-27.189-15.7V286.031l27.189-15.7,27.189,15.7Z" transform="translate(-5.27 -98.334)"/><path class="b" d="M259.647,317.426l-27.189,15.7-27.189-15.7V286.031l27.189-15.7,27.189,15.7Z" transform="translate(-97.27 -47.334)"/><path class="d" d="M259.647,317.426l-27.189,15.7-27.189-15.7V286.031l27.189-15.7,27.189,15.7Z" transform="translate(-5.27 3.666)"/><path class="d" d="M259.647,317.426l-27.189,15.7-27.189-15.7V286.031l27.189-15.7,27.189,15.7Z" transform="translate(-68.27 -201.334)"/><path class="e" d="M259.647,317.426l-27.189,15.7-27.189-15.7V286.031l27.189-15.7,27.189,15.7Z" transform="translate(-37.269 -252.334)"/><path class="b" d="M131.267,104.65l-27.189,15.7-27.189-15.7V73.256l27.189-15.7,27.189,15.7Z" transform="translate(184.111 114.441)"/><path class="b" d="M131.267,104.65l-27.189,15.7-27.189-15.7V73.256l27.189-15.7,27.189,15.7Z" transform="translate(123.112 319.442)"/><path class="b" d="M131.267,104.65l-27.189,15.7-27.189-15.7V73.256l27.189-15.7,27.189,15.7Z" transform="translate(246.11 216.441)"/><path class="b" d="M131.267,104.65l-27.189,15.7-27.189-15.7V73.256l27.189-15.7,27.189,15.7Z" transform="translate(246.11 114.441)"/><path class="d" d="M131.267,104.65l-27.189,15.7-27.189-15.7V73.256l27.189-15.7,27.189,15.7Z" transform="translate(215.111 62.441)"/><path class="b" d="M131.267,104.65l-27.189,15.7-27.189-15.7V73.256l27.189-15.7,27.189,15.7Z" transform="translate(184.11 11.441)"/><path class="b" d="M131.267,104.65l-27.189,15.7-27.189-15.7V73.256l27.189-15.7,27.189,15.7Z" transform="translate(122.111 11.441)"/><path class="b" d="M131.267,104.65l-27.189,15.7-27.189-15.7V73.256l27.189-15.7,27.189,15.7Z" transform="translate(153.111 -39.559)"/><path class="f" d="M131.267,104.65l-27.189,15.7-27.189-15.7V73.256l27.189-15.7,27.189,15.7Z" transform="translate(215.111 -39.559)"/><path class="b" d="M131.267,104.65l-27.189,15.7-27.189-15.7V73.256l27.189-15.7,27.189,15.7Z" transform="translate(184.11 319.442)"/><path class="b" d="M131.267,104.65l-27.189,15.7-27.189-15.7V73.256l27.189-15.7,27.189,15.7Z" transform="translate(214.111 268.44)"/><path class="d" d="M131.267,104.65l-27.189,15.7-27.189-15.7V73.256l27.189-15.7,27.189,15.7Z" transform="translate(1.111 216.441)"/><path class="b" d="M131.267,104.65l-27.189,15.7-27.189-15.7V73.256l27.189-15.7,27.189,15.7Z" transform="translate(62.111 216.441)"/><path class="d" d="M259.647,317.426l-27.189,15.7-27.189-15.7V286.031l27.189-15.7,27.189,15.7Z" transform="translate(86.73 -47.334)"/><path class="d" d="M259.647,317.426l-27.189,15.7-27.189-15.7V286.031l27.189-15.7,27.189,15.7Z" transform="translate(25.73 -47.334)"/><path class="b" d="M259.647,317.426l-27.189,15.7-27.189-15.7V286.031l27.189-15.7,27.189,15.7Z" transform="translate(-126.27 106.665)"/><path class="b" d="M259.647,317.426l-27.189,15.7-27.189-15.7V286.031l27.189-15.7,27.189,15.7Z" transform="translate(56.73 3.666)"/><path class="d" d="M259.647,317.426l-27.189,15.7-27.189-15.7V286.031l27.189-15.7,27.189,15.7Z" transform="translate(-66.27 106.665)"/><path class="d" d="M259.647,317.426l-27.189,15.7-27.189-15.7V286.031l27.189-15.7,27.189,15.7Z" transform="translate(-96.27 55.667)"/><path class="b" d="M259.647,317.426l-27.189,15.7-27.189-15.7V286.031l27.189-15.7,27.189,15.7Z" transform="translate(-35.269 55.667)"/><path class="b" d="M259.647,317.426l-27.189,15.7-27.189-15.7V286.031l27.189-15.7,27.189,15.7Z" transform="translate(24.73 -150.334)"/><path class="d" d="M259.647,317.426l-27.189,15.7-27.189-15.7V286.031l27.189-15.7,27.189,15.7Z" transform="translate(24.73 55.667)"/></g></svg>