<svg xmlns="http://www.w3.org/2000/svg" xmlns:xlink="http://www.w3.org/1999/xlink" width="425" height="546" viewBox="0 0 425 546"><defs><style>.a{clip-path:url(#a);}.b,.f{fill:#014152;}.b{opacity:0.646;}.c{fill:#01596f;opacity:0.5;}.d{fill:#004556;}.e{fill:#023745;opacity:0.497;}</style><clipPath id="a"><rect width="425" height="546"/></clipPath></defs><g class="a"><path class="b" d="M136.531,109.21,106.71,126.427,76.889,109.21V74.776L106.71,57.558l29.821,17.217Z" transform="translate(37.11 67.441)"/><path class="c" d="M136.531,109.21,106.71,126.427,76.889,109.21V74.776L106.71,57.558l29.821,17.217Z" transform="translate(-30.89 67.441)"/><path class="b" d="M136.531,109.21,106.71,126.427,76.889,109.21V74.776L106.71,57.558l29.821,17.217Z" transform="translate(105.112 67.441)"/><path class="b" d="M136.531,109.21,106.71,126.427,76.889,109.21V74.776L106.71,57.558l29.821,17.217Z" transform="translate(3.112 10.441)"/><path class="b" d="M136.531,109.21,106.71,126.427,76.889,109.21V74.776L106.71,57.558l29.821,17.217Z" transform="translate(-64.889 10.441)"/><path class="c" d="M136.531,109.21,106.71,126.427,76.889,109.21V74.776L106.71,57.558l29.821,17.217Z" transform="translate(-30.89 -45.558)"/><path class="d" d="M136.531,109.21,106.71,126.427,76.889,109.21V74.776L106.71,57.558l29.821,17.217Z" transform="translate(5.11 124.441)"/><path class="d" d="M136.531,109.21,106.71,126.427,76.889,109.21V74.776L106.71,57.558l29.821,17.217Z" transform="translate(105.111 180.441)"/><path class="c" d="M264.912,321.985,235.091,339.2,205.27,321.985V287.551l29.821-17.217,29.821,17.217Z" transform="translate(-56.27 -88.334)"/><path class="c" d="M264.912,321.985,235.091,339.2,205.27,321.985V287.551l29.821-17.217,29.821,17.217Z" transform="translate(11.73 -88.334)"/><path class="d" d="M264.912,321.985,235.091,339.2,205.27,321.985V287.551l29.821-17.217,29.821,17.217Z" transform="translate(-90.27 -32.334)"/><path class="c" d="M264.912,321.985,235.091,339.2,205.27,321.985V287.551l29.821-17.217,29.821,17.217Z" transform="translate(10.73 24.666)"/><path class="c" d="M264.912,321.985,235.091,339.2,205.27,321.985V287.551l29.821-17.217,29.821,17.217Z" transform="translate(-57.27 -202.334)"/><path class="e" d="M264.912,321.985,235.091,339.2,205.27,321.985V287.551l29.821-17.217,29.821,17.217Z" transform="translate(-23.269 -258.335)"/><path class="e" d="M264.912,321.985,235.091,339.2,205.27,321.985V287.551l29.821-17.217,29.821,17.217Z" transform="translate(-91.269 -258.335)"/><path class="d" d="M136.531,109.21,106.71,126.427,76.889,109.21V74.776L106.71,57.558l29.821,17.217Z" transform="translate(138.111 352.442)"/><path class="b" d="M136.531,109.21,106.71,126.427,76.889,109.21V74.776L106.71,57.558l29.821,17.217Z" transform="translate(139.111 10.441)"/><path class="d" d="M136.531,109.21,106.71,126.427,76.889,109.21V74.776L106.71,57.558l29.821,17.217Z" transform="translate(106.11 409.441)"/><path class="d" d="M136.531,109.21,106.71,126.427,76.889,109.21V74.776L106.71,57.558l29.821,17.217Z" transform="translate(39.111 409.441)"/><path class="c" d="M136.531,109.21,106.71,126.427,76.889,109.21V74.776L106.71,57.558l29.821,17.217Z" transform="translate(4.111 237.441)"/><path class="d" d="M136.531,109.21,106.71,126.427,76.889,109.21V74.776L106.71,57.558l29.821,17.217Z" transform="translate(71.112 237.441)"/><path class="d" d="M264.912,321.985,235.091,339.2,205.27,321.985V287.551l29.821-17.217,29.821,17.217Z" transform="translate(-123.27 139.665)"/><path class="c" d="M264.912,321.985,235.091,339.2,205.27,321.985V287.551l29.821-17.217,29.821,17.217Z" transform="translate(-56.269 139.665)"/><path class="c" d="M264.912,321.985,235.091,339.2,205.27,321.985V287.551l29.821-17.217,29.821,17.217Z" transform="translate(-155.27 196.666)"/><path class="c" d="M264.912,321.985,235.091,339.2,205.27,321.985V287.551l29.821-17.217,29.821,17.217Z" transform="translate(-88.27 82.667)"/><path class="d" d="M264.912,321.985,235.091,339.2,205.27,321.985V287.551l29.821-17.217,29.821,17.217Z" transform="translate(-22.269 82.667)"/><path class="d" d="M136.531,109.21,106.71,126.427,76.889,109.21V74.776L106.71,57.558l29.821,17.217Z" transform="translate(208.111 124.441)"/><path class="d" d="M136.531,109.21,106.71,126.427,76.889,109.21V74.776L106.71,57.558l29.821,17.217Z" transform="translate(273.111 237.441)"/><path class="d" d="M136.531,109.21,106.71,126.427,76.889,109.21V74.776L106.71,57.558l29.821,17.217Z" transform="translate(275.111 124.441)"/><path class="c" d="M136.531,109.21,106.71,126.427,76.889,109.21V74.776L106.71,57.558l29.821,17.217Z" transform="translate(242.111 67.441)"/><path class="b" d="M136.531,109.21,106.71,126.427,76.889,109.21V74.776L106.71,57.558l29.821,17.217Z" transform="translate(207.111 10.441)"/><path class="f" d="M136.531,109.21,106.71,126.427,76.889,109.21V74.776L106.71,57.558l29.821,17.217Z" transform="translate(172.111 -45.558)"/><path class="c" d="M136.531,109.21,106.71,126.427,76.889,109.21V74.776L106.71,57.558l29.821,17.217Z" transform="translate(240.111 -45.558)"/><path class="d" d="M136.531,109.21,106.71,126.427,76.889,109.21V74.776L106.71,57.558l29.821,17.217Z" transform="translate(205.111 352.442)"/><path class="d" d="M136.531,109.21,106.71,126.427,76.889,109.21V74.776L106.71,57.558l29.821,17.217Z" transform="translate(173.11 409.441)"/><path class="d" d="M136.531,109.21,106.71,126.427,76.889,109.21V74.776L106.71,57.558l29.821,17.217Z" transform="translate(173.11 180.441)"/><path class="d" d="M136.531,109.21,106.71,126.427,76.889,109.21V74.776L106.71,57.558l29.821,17.217Z" transform="translate(239.111 295.44)"/><path class="c" d="M264.912,321.985,235.091,339.2,205.27,321.985V287.551l29.821-17.217,29.821,17.217Z" transform="translate(111.73 -32.334)"/><path class="d" d="M264.912,321.985,235.091,339.2,205.27,321.985V287.551l29.821-17.217,29.821,17.217Z" transform="translate(77.73 24.666)"/><path class="c" d="M264.912,321.985,235.091,339.2,205.27,321.985V287.551l29.821-17.217,29.821,17.217Z" transform="translate(110.73 196.666)"/><path class="b" d="M264.912,321.985,235.091,339.2,205.27,321.985V287.551l29.821-17.217,29.821,17.217Z" transform="translate(45.731 -145.334)"/><path class="c" d="M264.912,321.985,235.091,339.2,205.27,321.985V287.551l29.821-17.217,29.821,17.217Z" transform="translate(44.73 82.667)"/></g></svg>