<svg xmlns="http://www.w3.org/2000/svg" width="32.174" height="32.167" viewBox="0 0 32.174 32.167"><defs><style>.a{fill:#fcf9f9;}</style></defs><path class="a" d="M16.016,39.661a8.247,8.247,0,1,0,8.247,8.247A8.234,8.234,0,0,0,16.016,39.661Zm0,13.609a5.362,5.362,0,1,1,5.362-5.362A5.371,5.371,0,0,1,16.016,53.27ZM26.524,39.324A1.924,1.924,0,1,1,24.6,37.4,1.919,1.919,0,0,1,26.524,39.324Zm5.462,1.952a9.519,9.519,0,0,0-2.6-6.74,9.582,9.582,0,0,0-6.74-2.6c-2.656-.151-10.616-.151-13.272,0a9.568,9.568,0,0,0-6.74,2.591,9.551,9.551,0,0,0-2.6,6.74c-.151,2.656-.151,10.616,0,13.271a9.519,9.519,0,0,0,2.6,6.74,9.594,9.594,0,0,0,6.74,2.6c2.656.151,10.616.151,13.272,0a9.52,9.52,0,0,0,6.74-2.6,9.582,9.582,0,0,0,2.6-6.74c.151-2.656.151-10.609,0-13.264ZM28.555,57.39A5.428,5.428,0,0,1,25.5,60.448c-2.117.84-7.142.646-9.482.646s-7.372.187-9.482-.646A5.428,5.428,0,0,1,3.476,57.39c-.84-2.117-.646-7.142-.646-9.482s-.187-7.371.646-9.482a5.428,5.428,0,0,1,3.058-3.058c2.117-.84,7.142-.646,9.482-.646s7.372-.187,9.482.646a5.428,5.428,0,0,1,3.058,3.058c.84,2.117.646,7.142.646,9.482S29.395,55.28,28.555,57.39Z" transform="translate(0.075 -31.825)"/></svg>