<svg xmlns="http://www.w3.org/2000/svg" xmlns:xlink="http://www.w3.org/1999/xlink" width="262" height="112" viewBox="0 0 262 112"><defs><style>.a{clip-path:url(#a);}.b{fill:#d8d8d8;}</style><clipPath id="a"><rect width="262" height="112"/></clipPath></defs><g class="a"><g transform="translate(13.389 40.141)"><path class="b" d="M248.256,275.317h4.961l-.25,3.594H248l.251-3.594" transform="translate(-184 -270.932)"/><path class="b" d="M611.545,303.336h-.057a5.558,5.558,0,0,1-4.218,1.806c-3.289,0-4.67-1.875-4.67-4.328,0-2.764,2.833-4.542,7.867-4.542h1.656c.085-1.217.508-3.224-1.576-3.224a1.977,1.977,0,0,0-1.868,2.085H603.9a3.883,3.883,0,0,1,2.344-3.655,12.193,12.193,0,0,1,4.842-.832c2.819,0,6.279,1.4,6.046,4.847l-.392,6.675a23.6,23.6,0,0,0,.031,2.849h-4.958l-.267-1.681m-2.279-.948c2.452,0,2.609-2.278,2.739-4.129a7.225,7.225,0,0,0-2.9.3,2.4,2.4,0,0,0-1.464,2.021,1.622,1.622,0,0,0,1.625,1.808Z" transform="translate(-409.98 -280.701)"/><path class="b" d="M673.338,295.263l1.4-19.946h5.254l-1.4,19.946H673.34" transform="translate(-455.059 -270.932)"/><path class="b" d="M426.782,294h.054a5.189,5.189,0,0,1,4.61-2.026l-.311,4.455c-.353-.029-.713-.029-1.072-.029-3.464,0-3.569,1.985-3.7,4.281l-.313,5.179h-5.389l.721-10.313a33.863,33.863,0,0,0,.082-3.605H426.6l.177,2.059" transform="translate(-294.033 -281.524)"/><path class="b" d="M449.331,295.263l1.4-19.946h5.084l-1.4,19.946h-5.084" transform="translate(-312.303 -270.932)"/><path class="b" d="M333.964,275.312h5.209l-.559,7.952h.1a5.787,5.787,0,0,1,4.392-2.284c4.257,0,5.9,3.748,5.666,7.133-.235,3.437-2.03,7.347-6.787,7.347a4.984,4.984,0,0,1-3.88-1.915H338l-.311,1.7H332.57l1.394-19.933m4.167,13.185c-.081,1.7.345,4.09,2.248,4.09,2.421,0,3.016-2.408,3.1-4.339.08-1.7-.257-4.232-2.309-4.227-2.616.007-2.952,2.633-3.039,4.479Z" transform="translate(-237.892 -270.929)"/><path class="b" d="M384.012,299.074c-.154,1.918.286,3.468,2.249,3.468a2.18,2.18,0,0,0,2.39-1.884h4.867a4.855,4.855,0,0,1-2.67,3.779,7.989,7.989,0,0,1-4.289.911c-5.668,0-7.859-2.352-7.51-7.626.291-4.4,3.833-7,8.008-6.93,5.585.089,7.38,3.375,6.849,8.283h-9.893m5.053-2.622a3.434,3.434,0,0,0-.49-2.074,1.823,1.823,0,0,0-1.748-.884c-1.832.083-2.318,1.381-2.568,2.958Z" transform="translate(-267.49 -280.794)"/><path class="b" d="M189.239,275.317h5.845l-1.4,19.938H187.84l1.4-19.938" transform="translate(-145.657 -270.932)"/><path class="b" d="M213.372,275.317l-6.984,8.861,6.225,11.077h7l-6.979-11.369,7.344-8.57h-6.606" transform="translate(-157.478 -270.932)"/><path class="b" d="M245.654,291.941h4.961l-.974,13.912H244.68l.975-13.912" transform="translate(-181.881 -281.527)"/><path class="b" d="M267.392,291.211v1.88h.056a5.871,5.871,0,0,1,4.99-2.209c1.894,0,3.833,1.048,4.225,2.455a6.038,6.038,0,0,1,5.1-2.538c3.034,0,5.144,1.942,4.925,5.021l-.66,9.3h-5.337l.579-8.172c.073-1.324-.034-2.828-1.779-2.828-2.555,0-2.455,2.859-2.482,3.025l-.548,7.979H271.1l.593-8.176c.025-1.358-.152-2.828-1.846-2.828-2.7,0-2.64,2.859-2.636,3.025l-.555,7.982H261.15l.967-13.92h5.271" transform="translate(-192.379 -280.799)"/><path class="b" d="M473.813,312.56h-4.829l3.111-6.469-5.1-14.14h5.919l2.3,8.633,3.65-8.633h4.887l-9.942,20.61" transform="translate(-323.561 -281.533)"/><path class="b" d="M510.825,299.662h6.727l-2.15,4.353h-6.729l2.152-4.353" transform="translate(-350.121 -286.447)"/><path class="b" d="M544.377,273.856c4.112,0,8.312,1.8,8.129,6.787h-5.662a2.606,2.606,0,0,0-2.678-2.8c-1.916,0-4.169,1.43-4.569,5.569s.125,7.277,3.472,7.277A3.434,3.434,0,0,0,546.6,287.7h5.616c0,2.225-1.843,6.82-9.452,6.82-8.038,0-9.465-5.847-8.8-11.3.562-4.56,3.807-9.375,10.41-9.375" transform="translate(-366.148 -270.001)"/><path class="b" d="M585.627,295.263l1.4-19.946h5.084l-1.4,19.946h-5.086" transform="translate(-399.162 -270.932)"/><path class="b" d="M650.2,294h.056a5.213,5.213,0,0,1,4.641-2.026l-.311,4.455c-.385-.029-.745-.029-1.1-.029-3.461,0-3.567,1.985-3.7,4.281l-.311,5.179h-5.39l.719-10.313a33.434,33.434,0,0,0,.085-3.6h5.137L650.2,294" transform="translate(-436.416 -281.524)"/><path class="b" d="M690.325,298.028l4.967-6.181h5.963l-5.35,5.876,5.068,8.039h-6.458l-4.189-7.733" transform="translate(-465.885 -281.466)"/><path class="b" d="M71.542,277.716c0,8.006,7.449,14.491,16.641,14.491s16.639-6.485,16.639-14.491-7.451-14.487-16.639-14.487c-9.212,0-16.641,6.487-16.641,14.487m16.645,13.159c-8.474,0-15.312-5.876-15.312-13.159s6.838-13.155,15.312-13.155,15.31,5.876,15.31,13.155S96.661,290.875,88.187,290.875Z" transform="translate(-71.542 -263.229)"/><path class="b" d="M89.587,295.194v-4.037a4.6,4.6,0,0,1-2.923.9h-6.84v-5.621h4.22c1.058,0,1.125-.631,1.125-.819,0-1.624-2.79-3.873-5.885-6.2l8.293-.016a12.411,12.411,0,0,1,2.016,1.74v-5.9h7.05v5.9a12.352,12.352,0,0,1,2.014-1.74l8.293.016c-3.094,2.331-5.881,4.58-5.881,6.2,0,.188.067.819,1.121.819h4.219v5.621H99.573a4.606,4.606,0,0,1-2.926-.9v4.037h-7.06m5.677-1.381v-6.4a5.15,5.15,0,0,0,5.021,3.264h4.752v-2.87H101.71a2.062,2.062,0,0,1-2.249-2c0-1.772,1.434-3.124,3.576-5.015h-3.79a10.45,10.45,0,0,0-3.978,4.69v-8.856h-4.3v8.856a10.464,10.464,0,0,0-3.979-4.69H83.2c2.139,1.891,3.576,3.243,3.576,5.015a2.063,2.063,0,0,1-2.251,2H81.2v2.87h4.751a5.148,5.148,0,0,0,5.019-3.264v6.4Z" transform="translate(-76.475 -270.875)"/></g></g></svg>