<svg xmlns="http://www.w3.org/2000/svg" xmlns:xlink="http://www.w3.org/1999/xlink" width="212" height="147" viewBox="0 0 212 147"><defs><style>.a{clip-path:url(#a);}.b{fill:#d42452;}.c{fill:#004658;}.d{fill:#004c5f;}.e{fill:#fff;}</style><clipPath id="a"><rect width="212" height="147"/></clipPath></defs><g class="a"><g transform="translate(6.73 6.844)"><g transform="translate(0 0)"><path class="b" d="M140.684,112.806l-31.9,18.416-31.9-18.416V75.975l31.9-18.416,31.9,18.416Z" transform="translate(-76.889 -57.559)"/><path class="b" d="M269.064,325.581,237.167,344l-31.9-18.415V288.75l31.9-18.416,31.9,18.416Z" transform="translate(-168.806 -209.899)"/><g transform="translate(75.21 18.075)"><g transform="translate(0 0)"><path class="c" d="M347.934,157.308V125.795h-6.247V121.2h17.486v4.594h-6.247v31.514Z" transform="translate(-341.687 -121.2)"/><path class="c" d="M411.978,157.308V121.2h6.247q5.581,0,8.412,2.236t2.83,7.436a11.78,11.78,0,0,1-1.113,5.4,5.921,5.921,0,0,1-3.259,2.982l5.62,18.053h-4.957l-5.035-16.761h-3.747v16.761Zm5-20.632h1.249a6.961,6.961,0,0,0,4.684-1.361q1.561-1.361,1.561-4.442t-1.561-4.443a6.969,6.969,0,0,0-4.684-1.361h-1.249Z" transform="translate(-392.012 -121.2)"/><path class="c" d="M480.412,157.308l7.494-36.108h5l7.494,36.107h-5l-1.873-9.026h-6.247l-1.873,9.026Zm7.494-12.9h5l-2.5-15.474Z" transform="translate(-441.009 -121.2)"/><path class="c" d="M560.663,157.308V121.2h7.747q5.484,0,7.738,2.316t2.254,8V145.7q0,5.943-2.293,8.775t-7.738,2.831Zm5-3.869h2.752a8.309,8.309,0,0,0,2.108-.232,2.806,2.806,0,0,0,1.423-.846,6.878,6.878,0,0,0,.859-1.168,4.706,4.706,0,0,0,.439-1.723q.127-1.168.146-1.925t.02-2.347V132.806q0-.99-.01-1.571t-.059-1.38a9.151,9.151,0,0,0-.147-1.259q-.1-.464-.273-1.038a2.619,2.619,0,0,0-.439-.9,6.86,6.86,0,0,0-.645-.675,2.462,2.462,0,0,0-.878-.524,7.33,7.33,0,0,0-1.161-.282,9.149,9.149,0,0,0-1.484-.111h-2.65Z" transform="translate(-498.466 -121.2)"/><path class="c" d="M638.509,157.308V121.2h13.739v3.868H643.5v11.607h6.247v3.869H643.5v12.894h8.743v3.869Z" transform="translate(-554.201 -121.2)"/></g></g><g transform="translate(111.638 79.82)"><path class="d" d="M479.759,375.346q-4.626,0-7.063-2.853a12.8,12.8,0,0,1-2.721-7.8l4.894-1.285q.363,7.716,4.894,7.716,3.67,0,3.67-3.859a7.279,7.279,0,0,0-.3-2.12,5.724,5.724,0,0,0-.908-1.787,12.132,12.132,0,0,0-1.115-1.309q-.495-.491-1.357-1.215l-6.117-5.145a9.989,9.989,0,0,1-2.686-3.525,11.355,11.355,0,0,1-1-4.874,8.562,8.562,0,0,1,2.35-6.332,8.425,8.425,0,0,1,6.231-2.35,9.733,9.733,0,0,1,6.623,2.139,9.542,9.542,0,0,1,3.031,6.061c.038.281.083.67.134,1.165l-4.893,1.286q-.02-.34-.1-1.025a8.077,8.077,0,0,0-1.462-3.929,3.951,3.951,0,0,0-3.336-1.476,3.507,3.507,0,0,0-2.715,1.035,4.09,4.09,0,0,0-.956,2.884,6.374,6.374,0,0,0,2.447,5.084l6.117,5.146a12.657,12.657,0,0,1,4.893,9.949,8.179,8.179,0,0,1-2.322,6.19A8.614,8.614,0,0,1,479.759,375.346Z" transform="translate(-469.948 -338.6)"/><path class="d" d="M560,375.659a12.759,12.759,0,0,1-7.875,0,7.466,7.466,0,0,1-2.8-1.737,8.523,8.523,0,0,1-1.787-2.8,15.62,15.62,0,0,1-.975-3.649,30.844,30.844,0,0,1-.287-4.432V339.885h4.894v23.153q0,1.667.067,2.793a15.065,15.065,0,0,0,.354,2.4,6.129,6.129,0,0,0,.793,2.041,3.9,3.9,0,0,0,1.434,1.265,5.269,5.269,0,0,0,4.492,0,3.9,3.9,0,0,0,1.434-1.265,6.131,6.131,0,0,0,.794-2.041,15.079,15.079,0,0,0,.354-2.4q.067-1.127.067-2.793V339.885h4.894v23.153a30.844,30.844,0,0,1-.287,4.432,15.63,15.63,0,0,1-.975,3.649,8.527,8.527,0,0,1-1.787,2.8,7.466,7.466,0,0,1-2.8,1.735Z" transform="translate(-524.593 -339.516)"/><path class="d" d="M632.286,375.9V339.885h4.895V375.9Z" transform="translate(-586.175 -339.516)"/><path class="d" d="M665.391,375.9V344.467h-6.117v-4.582H676.4v4.582h-6.117V375.9Z" transform="translate(-605.497 -339.516)"/><path class="d" d="M728.123,375.9V339.885H741.58v3.859h-8.564V355.32h6.117v3.859h-6.117v12.865h8.564V375.9Z" transform="translate(-654.79 -339.516)"/></g><g transform="translate(23.116 18.047)"><path class="e" d="M163.5,156.74V126.487h-5.227V121.1h17.562v5.385H170.71v30.253Z" transform="translate(-158.276 -121.1)"/></g><g transform="translate(59.21 79.828)"><path class="e" d="M285.352,364.786l7.306-1.406q0,1.089.04,1.917a14.962,14.962,0,0,0,.208,1.812,6.537,6.537,0,0,0,.456,1.6,2.88,2.88,0,0,0,.812,1.051,1.9,1.9,0,0,0,1.237.426q2.138,0,2.138-2.732,0-3.743-4.218-7.444l-2.237-1.9q-1.069-.891-1.7-1.484a20.312,20.312,0,0,1-1.495-1.6,10.39,10.39,0,0,1-1.346-1.947A11.486,11.486,0,0,1,285.375,348a8.851,8.851,0,0,1,2.752-6.86,10.383,10.383,0,0,1,7.306-2.525,8.7,8.7,0,0,1,6.432,2.693,8.917,8.917,0,0,1,2.653,6.494l-.02.258v.594l-7.444,1.03q0-.218.03-.68t.03-.763a9.127,9.127,0,0,0-.1-1.366,7.29,7.29,0,0,0-.327-1.307,2.261,2.261,0,0,0-.7-1.039,1.763,1.763,0,0,0-1.149-.386,1.974,1.974,0,0,0-1.782.928,4,4,0,0,0-.594,2.2,6.14,6.14,0,0,0,.346,2.079,5.923,5.923,0,0,0,1.051,1.812,15.631,15.631,0,0,0,1.3,1.4q.594.557,1.584,1.356t1.406,1.175a30.519,30.519,0,0,1,2.574,2.524,19.823,19.823,0,0,1,1.979,2.663,11.8,11.8,0,0,1,1.4,3.208,14.232,14.232,0,0,1,.465,3.722,7.842,7.842,0,0,1-2.673,6.128,9.407,9.407,0,0,1-6.494,2.386,10.139,10.139,0,0,1-4.4-.91,8.194,8.194,0,0,1-3.1-2.474,12.048,12.048,0,0,1-1.812-3.464A14.991,14.991,0,0,1,285.352,364.786Z" transform="translate(-285.352 -338.613)"/></g></g></g></g></svg>