<svg xmlns="http://www.w3.org/2000/svg" xmlns:xlink="http://www.w3.org/1999/xlink" width="262" height="112" viewBox="0 0 262 112"><defs><style>.a{clip-path:url(#a);}.b{fill:#d8d8d8;}</style><clipPath id="a"><rect width="262" height="112"/></clipPath></defs><g class="a"><path class="b" d="M90.744,108.62a3.265,3.265,0,0,1,3.48-3.232c2.675,0,3.278,1.1,3.783,2.294l.639,1.53h.463l.258-4.462a28.589,28.589,0,0,0-4.417-.511c-5.269,0-7.433,3.273-7.433,5.607,0,6.027,9.468,5.135,9.468,10.444,0,2.464-2.036,3.531-4.16,3.531a4.293,4.293,0,0,1-2.717-.856,8.224,8.224,0,0,1-1.484-3.351h-.47l-.257,4.964a27.765,27.765,0,0,0,3.866.386c6.752,0,8.448-3.314,8.448-5.86,0-6.794-9.468-5.439-9.468-10.484Zm20.6,14.515c-.81,0-2.125-.722-2.125-2.675V106.11H114.1v-1.145h-4.883V99.991h-.592a9.1,9.1,0,0,1-6.036,5.356v.763h3.4v7.133c0,2.382-.124,5.943-.124,7.856,0,3.438,2.206,3.953,3.309,3.953,1.918,0,3.274-.638,5.949-2.762l-.639-.815a4.931,4.931,0,0,1-3.138,1.66Zm15.581-18.9c-6.536,0-9.768,5.433-9.768,10.577,0,5.985,3.614,10.149,9,10.149a9.545,9.545,0,0,0,7.515-3.056l-.593-.768a6.544,6.544,0,0,1-4.8,1.913c-5,0-7.3-4.8-7.3-9.516,0-.469.047-.969.088-1.438h12.02c.933-.046,1.232-.3,1.232-1.32,0-3.695-2.382-6.541-7.392-6.541Zm3.567,6.541c-.639.047-1.227.047-2.593.087l-6.748.171c.593-3.526,2.459-5.907,5.051-5.907,3.016,0,4.289,2.037,4.289,4.886v.763Zm11.762,9.258V103.222c0-2.889.171-5.775.253-8.665a63.46,63.46,0,0,1-6.959.34v.6l2.505.808a1.056,1.056,0,0,1,.68.467,16.282,16.282,0,0,1,.294,3.608v19.661c0,2.082-.171,2.8-1.485,3.227l-1.995.68v.592a46.333,46.333,0,0,1,4.969-.34c1.737,0,3.52.17,5.221.34v-.592l-2.082-.68c-1.314-.423-1.4-1.145-1.4-3.227Zm11.809,0V103.222c0-2.889.171-5.775.253-8.665a63.608,63.608,0,0,1-6.964.34v.6l2.505.808a1.066,1.066,0,0,1,.68.467,16.277,16.277,0,0,1,.294,3.608v19.661c0,2.082-.171,2.8-1.489,3.227l-1.99.68v.592a46.331,46.331,0,0,1,4.969-.34c1.742,0,3.52.17,5.221.34v-.592l-2.082-.68c-1.309-.423-1.4-1.145-1.4-3.227Zm20.763,1.144V109.336c0-3.948-2.974-5.1-6.366-5.1-3.314,0-5.778,1.7-7.773,4.886l1.057.593a6.924,6.924,0,0,1,5.649-3.268c2.423,0,4.289.9,4.289,4.031v2.253h-.293c-7.011,0-11.933,2.164-11.933,7,0,3.649,2.5,5.226,5.6,5.226s4.927-1.829,6.577-4.036h.088l-.124,3.608a19.156,19.156,0,0,1,3.1-.34,22.022,22.022,0,0,1,3.273.34v-.592c-2.68-.511-3.144-.722-3.144-2.763ZM171.6,117.4c0,3.4-2.252,5.349-4.969,5.349-2.417,0-3.608-1.437-3.608-3.69,0-4.588,5.134-5.185,8.577-5.185Zm-89.625,3.777V109.336c0-3.948-2.975-5.1-6.371-5.1-3.315,0-5.773,1.7-7.773,4.886l1.067.593a6.906,6.906,0,0,1,5.644-3.268c2.417,0,4.288.9,4.288,4.031v2.253h-.3c-7,0-11.933,2.164-11.933,7,0,3.649,2.5,5.226,5.608,5.226s4.922-1.829,6.578-4.036h.087l-.129,3.608a19.347,19.347,0,0,1,3.1-.34,21.961,21.961,0,0,1,3.268.34v-.592c-2.67-.511-3.139-.722-3.139-2.763ZM78.74,117.4c0,3.4-2.247,5.349-4.964,5.349-2.423,0-3.608-1.437-3.608-3.69,0-4.588,5.134-5.185,8.572-5.185Zm104.919-8.783a3.259,3.259,0,0,1,3.48-3.232c2.675,0,3.267,1.1,3.778,2.294l.638,1.53h.464l.258-4.462a28.614,28.614,0,0,0-4.418-.511c-5.263,0-7.433,3.273-7.433,5.607,0,6.027,9.474,5.135,9.474,10.444,0,2.464-2.042,3.531-4.165,3.531a4.289,4.289,0,0,1-2.717-.856,8.344,8.344,0,0,1-1.489-3.351h-.459l-.262,4.964a27.845,27.845,0,0,0,3.865.386c6.752,0,8.449-3.314,8.449-5.86,0-6.794-9.463-5.439-9.463-10.484ZM39.9,109.909c-1.423,6.035-3.16,11.6-5.778,15.684,7.154-3.5,14.149-12.8,17.8-20.782a21.919,21.919,0,0,1,9.263,4.949A31.159,31.159,0,0,0,58.67,94.742c-4.706,4.9-11.933,9.389-18.773,15.167ZM60.24,87.527a31.431,31.431,0,0,1-5.149-.511c-2.242-4.69-4.052-9.156-3.279-14.223-2.86,2.561-4.814,6.865-6.356,12.03C31.675,81.166,14.2,75.419,1,78.136a50.658,50.658,0,0,1,15.03,4.5A54.338,54.338,0,0,1,34.3,96.959c-.283.313-.582.633-.881.97-4.97,5.593-11.165,14.422-12.666,23.072a32.206,32.206,0,0,1,8.011-7.908c11.174-8.253,28.251-15.169,33.89-23.923a13.72,13.72,0,0,0,1.088-2.04c-.123.035-.243.06-.366.09a13.106,13.106,0,0,1-3.139.306Z" transform="translate(33.713 -43.16)"/></g></svg>