<svg xmlns="http://www.w3.org/2000/svg" xmlns:xlink="http://www.w3.org/1999/xlink" width="210" height="90" viewBox="0 0 210 90"><defs><style>.a{clip-path:url(#a);}.b,.c{fill:#d8d8d8;}.c{stroke:rgba(0,0,0,0);stroke-miterlimit:10;}</style><clipPath id="a"><rect width="210" height="90" transform="translate(0.156 -0.513)"/></clipPath></defs><g class="a" transform="translate(-0.156 0.513)"><g transform="translate(13.482 17.242)"><g transform="translate(80.823 32.71)"><path class="b" d="M96.65,267.663H89.472v5.117h6.91v2.193h-6.91v5.25h7.376v2.194H87.081V265.473H96.65Z" transform="translate(-87.081 -265.473)"/><path class="b" d="M98.708,265.473H100.9v16.944H98.708Z" transform="translate(-83.659 -265.473)"/><path class="b" d="M107.472,275.9h7.837c0-4.122-1.923-6.115-4.85-6.115-3.056,0-5.184,2.258-5.184,5.648,0,3.057,1.927,5.915,5.382,5.915a7.67,7.67,0,0,0,4.452-1.331v-2.124a7.141,7.141,0,0,1-3.92,1.328,3.461,3.461,0,0,1-3.72-3.321Zm3.056-4.253a2.568,2.568,0,0,1,2.592,2.791h-5.582C107.8,272.643,108.8,271.646,110.528,271.646Z" transform="translate(-81.724 -264.204)"/><path class="b" d="M125.765,272.906a5.127,5.127,0,0,0-3.057-1.129c-2.06,0-3.389,1.53-3.389,3.788a3.455,3.455,0,0,0,3.721,3.721,7.851,7.851,0,0,0,2.989-.731v2.125a9.841,9.841,0,0,1-3.321.666,5.391,5.391,0,0,1-5.648-5.584c0-3.653,2.128-5.978,5.447-5.978a7.3,7.3,0,0,1,3.258.734Z" transform="translate(-78.257 -264.204)"/><path class="b" d="M132.371,270.469H135.9v1.991h-3.525v5.715a1.541,1.541,0,0,0,1.6,1.662,5.047,5.047,0,0,0,2.523-.8v2.06a7.27,7.27,0,0,1-2.724.731,3.3,3.3,0,0,1-3.586-3.525v-5.848h-1.923v-.26l4.118-4.051v2.327Z" transform="translate(-74.964 -264.687)"/><path class="b" d="M140.789,269.986v2.588h0c1.13-1.993,2.191-2.791,3.256-2.791a3.936,3.936,0,0,1,2.657,1.263l-1.2,1.927a3.41,3.41,0,0,0-2.056-1.064c-1.528,0-2.657,1.528-2.657,3.389v5.848H138.6V269.986Z" transform="translate(-71.918 -264.203)"/><path class="b" d="M149.682,269.939h2.193V281.1h-2.193Z" transform="translate(-68.655 -264.158)"/><path class="b" d="M164.368,272.906a5.131,5.131,0,0,0-3.059-1.129c-2.06,0-3.387,1.53-3.387,3.788a3.454,3.454,0,0,0,3.72,3.721,7.856,7.856,0,0,0,2.99-.731v2.125a9.849,9.849,0,0,1-3.323.666,5.39,5.39,0,0,1-5.648-5.584c0-3.653,2.127-5.978,5.447-5.978a7.3,7.3,0,0,1,3.256.734v2.388Z" transform="translate(-66.894 -264.204)"/></g><g transform="translate(0 0)"><path class="b" d="M45.516,248.033c-4.2-1.863-6.71-2.516-9.132-2.516-2.609,0-4.287.931-4.287,2.33,0,4.379,14.725,3.17,14.725,13.233,0,5.5-4.661,8.763-11.09,8.763a19.123,19.123,0,0,1-10.439-2.8V260.8c4.1,2.8,6.617,3.729,9.88,3.729,2.794,0,4.286-.932,4.286-2.7,0-4.662-14.82-2.983-14.82-13.329,0-5.034,4.381-8.3,11.093-8.3a23.157,23.157,0,0,1,9.784,2.243Z" transform="translate(-24.639 -240.2)"/><path class="b" d="M60.841,266.417a20.729,20.729,0,0,1-6.618,1.306c-6.9,0-11.371-4.005-11.371-10.159,0-5.964,4.662-10.161,11.093-10.161a19.013,19.013,0,0,1,6.618,1.306v4.566a12.105,12.105,0,0,0-5.035-1.4c-3.725,0-6.056,2.235-6.056,5.688a5.5,5.5,0,0,0,5.871,5.779c1.491,0,2.8-.376,5.5-1.4v4.472Z" transform="translate(-19.276 -238.082)"/><path class="b" d="M72.116,266.031V258.2c0-2.89-1.21-4.288-3.168-4.288-1.4,0-2.609.932-4.1,2.983v12.489H58.694V240.491h6.152V252.7h.093a7.5,7.5,0,0,1,6.151-3.263c3.637,0,7.176,2.144,7.176,7.458v7.92a23.938,23.938,0,0,0-6.149,1.214Z" transform="translate(-14.613 -240.116)"/><path class="b" d="M76.049,262.411V247.778H82.2v2.8a8.011,8.011,0,0,1,6.432-3.17c3.074,0,7.082,1.774,7.082,7.458v12.486H89.562V255.421c0-2.8-1.3-3.914-3.075-3.914-1.492,0-2.609.839-4.287,3.262v8.572a36.187,36.187,0,0,0-6.151-.933Z" transform="translate(-9.505 -238.082)"/><path class="b" d="M103.46,247.4a9.916,9.916,0,0,0-10.347,10.254c0,6.058,4.475,10.066,11.375,10.066a14.072,14.072,0,0,0,8.76-2.609v-3.822c-2.884,2.052-4.846,2.794-7.269,2.794-3.822,0-6.244-2.05-6.432-5.5H113.53c.372-7.176-4.381-11.185-10.067-11.185Zm-3.821,7.924c.278-2.7,1.864-4.288,4.288-4.288,2.331,0,4.005,1.682,4.192,4.288Z" transform="translate(-4.482 -238.081)"/><path class="b" d="M110.756,247.693h6.151v19.572h-6.151Z" transform="translate(0.711 -237.996)"/><path class="b" d="M131.989,240.491v10.162a11.788,11.788,0,0,0-5.034-1.214c-5.593,0-9.507,4.1-9.507,10.161,0,5.871,3.914,10.159,9.132,10.159a7.922,7.922,0,0,0,5.408-1.957v1.585h6.151V240.491Zm0,23.581a5.1,5.1,0,0,1-3.636,1.585c-2.89,0-4.753-2.422-4.753-5.964,0-3.916,1.862-6.151,4.94-6.151a6.343,6.343,0,0,1,3.445,1.122v9.411Z" transform="translate(2.683 -240.116)"/><path class="b" d="M145.8,247.4a9.911,9.911,0,0,0-10.344,10.254c0,6.058,4.473,10.066,11.37,10.066a14.223,14.223,0,0,0,8.761-2.609v-3.822c-2.89,2.052-4.847,2.794-7.269,2.794-3.916,0-6.248-2.05-6.526-5.5h14.073c.278-7.176-4.38-11.185-10.065-11.185Zm-3.82,7.931c.277-2.7,1.77-4.288,4.194-4.288s4.005,1.682,4.284,4.288Z" transform="translate(7.981 -238.081)"/><path class="b" d="M159.751,253.371h.093c1.77-4.1,3.821-5.967,6.248-5.967,1.21,0,2.238.469,4.005,1.774l-1.677,5.4a6.642,6.642,0,0,0-3.634-1.4c-2.238,0-3.729,2.144-5.035,5.688v8.477H153.6v-19.57h6.151Z" transform="translate(13.322 -238.082)"/><path class="b" d="M117.286,241.6c.561,1.585-.467,3.727-2.33,4.755-1.867,1.122-3.822.746-4.381-.746s.467-3.637,2.331-4.754,3.818-.746,4.38.744Z" transform="translate(0.612 -240.2)"/></g><path class="b" d="M152.042,266.967a1.549,1.549,0,0,1-.864,1.662c-.664.4-1.328.267-1.528-.268a1.5,1.5,0,0,1,.8-1.659,1.063,1.063,0,0,1,1.595.265Z" transform="translate(12.135 -232.464)"/><path class="c" d="M9.125,28.369h0a9.435,9.435,0,0,1-6.248-2.1A7.778,7.778,0,0,1,1.26,24.36a8.578,8.578,0,0,1-.952-2.323A10.7,10.7,0,0,1,0,19.4a13.766,13.766,0,0,1,.32-2.849H5.464L6.3,14.034H1.077a19.724,19.724,0,0,1,1.046-2.265H6.642L7.48,9.254H3.715A24.166,24.166,0,0,1,5.822,6.746a23.792,23.792,0,0,1,6.9-5A17.071,17.071,0,0,1,19.884,0a9.432,9.432,0,0,1,6.248,2.1,7.988,7.988,0,0,1,2.515,4.045,11.7,11.7,0,0,1,.126,5.233H22.727l-.814,2.514H28.1a19.232,19.232,0,0,1-.977,2.264H21.544l-.815,2.515h4.887a23.989,23.989,0,0,1-2.426,2.954,23.766,23.766,0,0,1-6.9,5,17.077,17.077,0,0,1-7.166,1.742ZM4.967,18.7,3.945,22.632h6.433A8.58,8.58,0,0,0,14.9,21.2a6.452,6.452,0,0,0,2.86-3.591l2-7.56c.155-.59.416-.763,1.16-.771l3.34-.032.844-3.557H18.745A8.121,8.121,0,0,0,14.3,7.177a7.666,7.666,0,0,0-1.746,1.633,5.2,5.2,0,0,0-.981,2.012L9.99,17.783a1.138,1.138,0,0,1-.547.685,1.762,1.762,0,0,1-.881.265H8.554Z" transform="translate(46.075 26.375)"/></g></g></svg>