<svg xmlns="http://www.w3.org/2000/svg" xmlns:xlink="http://www.w3.org/1999/xlink" width="262" height="112" viewBox="0 0 262 112"><defs><style>.a{clip-path:url(#a);}.b,.d{fill:#d8d8d8;}.c{fill:#fff;}.d{isolation:isolate;}</style><clipPath id="a"><rect width="262" height="112"/></clipPath></defs><g class="a"><g transform="translate(27.079 4.996)"><path class="b" d="M111.026,317.989l-.46-.069-.445-.148-.337-.19-.376-.324-.324-.436-.22-.454-.147-.514-.063-.367v-.606l.112-1.107.333-2.035.567-2.755.421-2.181.142-1-.049-.132-.284-.132-1.154-.475-1.629-.778-1.8-1.071-1.1-.734-1.443-1.1-.861-.778-.93-.92-.714-.778-1.086-1.267-.235-.308-.455-.583-1.1-1.545-.2-.319-.4-.6-.1-.078-.034.054.015.382.112,1.057.22,1.448.577,2.558.147,1,.024,1-.034.523-.1.519-.176.519-.176.3-.249.352-.352.337-.377.25-.358.147-.356.068-.441-.009-.352-.1-.312-.161-.337-.264-.25-.26-.293-.5-.22-.612-.1-.728v-.954l.088-.837.392-1.966.464-1.854.142-.773.064-.612.039-.152.1-1,.029-1.777-.058-1.188-.039-.333-.039-.587-.186-1.062-.063-.39-.41-1.6-.376-1.576-.294-2.2-.1-1.6.015-1.218.015-.177v-.7l.034-.837.034-.219.044-.677.215-1.6.279-1.488.308-1.3.455-1.521.367-1.086.675-1.663.66-1.4.793-1.439.484-.8.881-1.32,1.012-1.336.808-.969.186-.19.264-.294,1.017-1.027.23-.2.929-.837,1.316-1.026.587-.416.675-.47.054-.093-.024-.127-.245-.446-.132-.43-.1-.67.014-.5.156-.671.235-.538.381-.631.362-.46.739-.685.376-.269.064-.1-.034-.1-.289-.24-.294-.406-.147-.319-.055-.25-.014-.47.083-.425.206-.5.22-.351.337-.383.293-.264.543-.351.519-.22.768-.221.788-.127.572-.015.582-.024.045-.054-.035-.1-.171-.25-.191-.4-.088-.368V245.6l.048-.284L111,245l.206-.307.264-.264.406-.25.337-.118.259-.053h.588l.415.083.665.235.572.309.376.25.593.5.42.44.69.9.4.636.27.5.083.089.036-.094-.03-.479-.2-1.071-.206-1.537-.176-1.076-.249-.974-.147-.392-.172-.254-.191-.157-.236-.2-.146-.268-.074-.357-.048-.333-.132-.2-.264-.323-.412-.456-.181-.117-.176-.015-.278.079-.191-.025-.2-.133-.3-.318-.118-.048-.128.034L113,239.5l-.127.049-.157-.024-.2-.132-.6-.616-.91-1.2-.822-1.306-.381-.719-.425-.979-.5-1.374-.191-.3-.6-.7-1.081-1.121-1.223-1.272-.275-.191-.22-.074-.376-.063-.181-.1-.161-.255-.118-.41-.068-.544.015-.366.156-.827.176-.533.323-.759.5-.959.631-1.1.6-.892.646-.836.866-1.028.112-.117.651-.66,1.115-.984.568-.445.65-.479.632-.411,1.169-.719,1.331-.616,1.066-.338.842-.171.661-.03.582.084.4.131.211.148.1.156.049.314-.054.356.039.157.176.231,1.052,1.193.514.543,1.135,1.258.514.528.274.177.8.3.763.367.6.353.967.675.9.719,1.164,1.125.406.514.083.156-.01.162-.088.167-.245.293.015.142.147.2.3.416.083.225-.025.181-.142.274-.015.117.132.21.484.514.274.235.289.161.381.064.2.117.205.313.089.225.049.3-.034.357-.1.377-.22.582-.454.9-.6,1.023-.616.9-.808,1.071-.763.88-.764.837-1.056,1.012-.245.2-.236.215-1.262,1-1.1.782-.122.171-.048.2-.06,4.257-.014.9-.1,2.456.02.058h.068l.161-.273.2-.372.231-.377.269-.411.441-.557.528-.573.142-.117.411-.323.557-.352.437-.206.581-.176.446-.083.617.038.332.089.41.191.319.22.337.367.177.342.132.4.024.421-.082.351-.118.289-.2.332v.048l.079.035h.7l.587.113.6.235.332.205.358.346.2.3.191.425.079.363.015.361-.079.392-.146.313-.231.314-.337.274-.323.181-.034.064.06.063.411.167.289.156.509.3.919.69.719.749.337.5.235.509.132.479.049.367-.015.475-.092.47-.192.459-.244.378-.034.122.048.1,2.36,1.619,1.027.793.606.524.406.327,1.1,1.057.929,1.036.627.735.7.881.645.9.851,1.32,1.175,2.065.822,1.82.415,1.11.1.284.2.558.044.2.361,1.189.064.268.259,1.14.3,1.918.161,1.467.107,1.712-.015,1.85-.131,2.51-.152,1.419-.093.611-.152.892-.083.562-.19,1.18-.074.988v.3l-.01.166v1.957l.068.9.04.43-.01.127.039.577-.025.524.034.161-.048.148-.171,1.521-.148.852-.214,1-.07.226-.3,1.071-.348,1.047-.166.5-.084.083h-.137l-.1-.1-.117-.372-.211-1.214-.367-1.424-.817-2.882-.078-.713-.034-.059h-.039l-.1.113-.343.587-.934,1.311-.944,1.169-.494.558-1.327,1.35-.391.358-.939.836-.764.626-1.1.822-1.394.924-1.233.734-1.276.645-1.464.632-1.38.484-1.374.4-1.1.279-1.639.322-1.761.23-1.439.118-2.259-.015-.749-.059-.411-.015-1.922-.235-1.972-.406-1.258-.328-.063.048-.024.069.02.391.048.3.147.944.91,4.516.132.856.118.773.029,1.164-.034.548-.133.582-.25.552-.308.381-.323.294-.3.177-.436.131-.455.04Z" transform="translate(-93.017 -215.882)"/><path class="c" d="M114.294,333.971l-.337-.01-.376-.117-.275-.176-.249-.3-.191-.406-.127-.573-.03-.455.1-1.145.171-1.027.166-.851.025-.221.26-1.3.288-1.684.04-.278.112-.5.225-1.273.039-.049.043.079.123.813.19,1.384.612,3.156.079.507.166,1.038.083.895.02.719-.083.64-.147.44-.205.3-.23.2-.332.148-.162.039Z" transform="translate(-96.154 -233.039)"/><path class="b" d="M152.507,331.4l-.523-.069-.383-.117-.331-.2-.34-.309-.263-.406-.163-.363-.1-.42-.039-.607.015-.176-.015-.131.089-.837.287-1.414.338-1.261.186-.612.254-.91.539-1.839.425-1.928.211-1.243.058-.107.089-.044.082.02.059.092.054.309.044.617.072.954.113.842.044.42.214,1.282.08.489.309,1.447.434,2.153.108,1.032.02.788-.049.635-.122.435-.205.445-.221.309-.25.284-.258.186-.333.161-.337.084-.191.015Z" transform="translate(-102.151 -232.21)"/><path class="b" d="M100.393,329.992l-.557-.015-.47-.112-.45-.22-.293-.235-.259-.274-.264-.426-.147-.4-.122-.469-.064-.7.01-.572.147-1.13.338-1.673.352-1.526.274-1.08.181-.857.127-.548.137-.685.45-2.134.3-1.916.034-.4.078-.132.073-.019.083.034.044.156.152,1.222.308,1.879.631,3,.294,1.208.029.156.128.563.21,1.1.137.676.191,1.364.044.9-.029.749-.112.6-.191.553-.161.309-.264.346-.171.177-.088.088-.485.279-.386.132-.24.039Z" transform="translate(-93.773 -231.584)"/><path class="c" d="M152.671,331l-.349-.024-.215-.089-.263-.235-.148-.225-.146-.406-.064-.363v-.713l.088-.631.08-.372.077-.508.4-1.654.347-1.253.328-1.551.054-.063.079.288.132,1.1.235,1.776.132.777.254,1.918.015.5-.015.117v.2l-.068.387-.132.371-.205.319-.274.2-.332.127Z" transform="translate(-102.329 -232.929)"/><path class="c" d="M100.277,329.654l-.323-.021-.271-.082-.268-.171-.255-.268-.18-.314-.147-.452-.058-.3-.006-.519.143-1.034.349-1.618.57-2.2.667-3.023.032-.046.048.133.125,1.209.193,1.1.05.384.352,1.878.112.855.076.5.1,1.016v.941l-.14.8-.13.349-.2.356-.259.269-.3.181-.276.073Z" transform="translate(-93.934 -232.403)"/><path class="c" d="M125.826,322.973l-.27-.039-.548-.177-.171-.117-.118-.182-.078-.259-.128-.323-.132-.113-.191-.107-.117-.153-.055-.675-.029-.645-.068-.651.034-.1.225-.069.265-.029h.367l.068.039-.107.294.014.484.049.132.25.323.181.1.206.025.152-.054.249-.264.122-.054.283-.068.05.024.01.168v.141l.1.264.108.225-.024.21-.02.158.068.245.171.239.009.162-.1.273-.161.259-.112.133-.137.073-.284.078-.131.034Z" transform="translate(-97.94 -232.359)"/><path class="c" d="M120.584,323.417l-.21-.009-.23-.05-.235-.024-.054-.044.156-.083.778-.283.269-.132.147-.172.152-.279.136-.088.293-.039.231.01.029.044-.02.069-.093.059-.318.107-.082.1-.094.324-.112.147-.744.346Z" transform="translate(-97.292 -232.818)"/><path class="c" d="M122.8,321.539l-.152-.01-.039-.166-.015-.367.045-.543-.02-.3.014-.176.069-.323.048-.161.079-.039h.381l.093.054.055.181.1.851.015.7-.054.112-.093.054-.528.126Z" transform="translate(-97.727 -232.378)"/><path class="c" d="M130.54,319.1l-.265-.025-.268-.117-.264-.25-.148-.24-.205-.528-.1-.661-.01-.582.082-1.091.2-1.027.094-.323.024-.152.078-.347.2-.828.074-.322.342-1.609.113-.686.04-.01.053.2.112.719.19.974.235.983.156.543.206.8.2,1.091.065.773-.02.993-.108.547-.19.48-.19.3-.236.206-.268.131-.19.054Z" transform="translate(-98.793 -230.921)"/><path class="c" d="M95.842,306.041l-.259-.01-.215-.087-.309-.236-.234-.333-.147-.338-.113-.509-.044-.557.014-.719.156-1.135.426-2.011.24-1.125.039-.259.123-.813.053-.474.049-.245.088-1.027v-1.747l-.117-1.159-.274-1.707-.367-2.08-.176-.984-.43-2.993-.088-1.321.064-2.858.372-2.847.293-1.448.294-1.154.455-1.453.528-1.448.822-1.859.836-1.561,1.1-1.756.719-1,.94-1.159,1.027-1.131,1.1-1.1,1.175-1,.919-.69.969-.66.382-.24.088-.117.121-.016.152-.053.2.015.421.092.47-.014.382-.083.421-.177.421-.264.4-.323.181-.171.113.01.087.126.181.255.186.176.3.177.357.132.157.025.528-.015.367-.113.314-.177.367-.279.66-.7,1.018-1.242.333-.278.338-.2.347-.133.3-.093.069-.093-.025-.108-.21-.072-.206-.01-.43.068-.387.147-.382.22-.362.294-.886.92-.263.293-.392.308-.263.1-.333.025-.333-.084-.186-.117-.147-.186-.107-.328,0-.283.112-.47.265-.539.352-.435.367-.337.454-.323.494-.25.724-.264.568-.117.875-.054.862.1.592.146.978.4.441.249.612.484.161.215.166.25.078.039.108-.025.059-.1.053-.3V254.8l-.087-1.923-.089-1.321-.053-.474-.078-1.17-.069-.607-.21-2.167-.186-1.232-.147-.646-.22-.685-.206-.367-.318-.377-.118-.254-.024-.092.009-.343.191-.744.381-.9.5-.88.719-1.082.719-.939.881-.983,1.174-1.19.441-.4.557-.514.979-.792,1.178-.866,1.286-.808.832-.44.558-.25.5-.147.422-.024.225.083.161.2.039.25-.1.514-.323.729-.969,1.492-.47.617-.245.3-.534.67-1.037,1.144-1.062,1.071-1.688,1.438-1.007.754-.484.441-.191.313-.1.255-.024.259.034,3.444.05,1.037-.011.156.016.264v2.343l-.06,3.024-.024.342-.088,2-.1,1.727.049.146.064.054h.126l.759-.538.367-.191.582-.235.475-.117.259-.039.645.015.4.1.319.131.391.25.265.264.263.421.108.328.02.342-.068.415-.147.338-.25.293-.449.293-.352.138-.094.1.05.1.107.073.264.025.425-.068.407-.162.317-.22.323-.361.19-.377.131-.426.034-.346-.048-.426-.088-.264-.177-.346-.057-.1.117.015.485.323.248.186.558.445.279.259.822.783.411.4.666.553.557.367.415.206.308.083.456.029.439-.044.182.069.9.514.984.631,1.438,1.028,1.292,1.085.249.231.837.8.146.156.558.578.837.969.152.215.244.293.691.91.136.2,1.1,1.629.411.685.6,1.164.415.91.059.167.363.875.514,1.448.454,1.546.177.69.23,1.214.245,1.648.118,1.072.009.2.034.607.015.435-.044.147.073.318.015,1.992-.01.7-.02.906-.082.7-.031.587-.029.117-.039.513-.088.729-.308,1.9-.158,1.648-.064.451.01,2.108.069,2.152-.039.959-.07.617-.263,1.394-.118.313-.058-.009-.069-.143-.342-1.042-.362-.988-.2-.866-.117-1.16.039-2.211-.059-.983-.23-1.654-.245-1.174-.089-.338-.092-.827.025-1.13.067-.754.079-.479.015-.718-.069-.5-.205-.661-.176-.377-.22-.337-.309-.318-.254-.161-.294-.1-.294-.01-.3.1-.288.221-.264.3-.176.322-.25.7-.118.587-.151,1.116-.22.754-.171.508-.22,1.121-.049.66.01.519.059.366.038.4.143.606.108.45.082.284.333,1.522.069.821-.026.367-.126.436-.186.337-.19.215-.23.147-.132.039-.225-.009-.181-.074-.2-.146-.19-.226-.163-.293-.1-.426-.024-.514.039-.508.1-.724.456-2.016.214-.851.113-.759.025-.635-.079-.47-.161-.519-.25-.529-.427-.67-.557-.69-.586-.529-.764-.557-1.021-.621-.594-.512-.332-.368-.309-.45-.46-.734-.616-.88-.529-.529-.465-.309-.363-.146-.43-.117-.333-.039-.5.024-.573.132-.356.161-.4.294-.293.294-.294.42-.153.342-.171.342-.205.719-.166,1.149-.076,1.53.01.2-.044,1.217-.112,1.067-.19.823-.294.885-.323.8-.287.66-.323,1.022-.176.763-.065.284-.038-.01-.269-.993-.411-1-.411-.876-.514-.964-.3-.528-.44-.822-.265-.645-.264-.818-.294-1.31-.342-1.972-.264-.969-.25-.6-.22-.392-.235-.308-.069-.058-.161-.147-.206-.132-.259-.069h-.322l-.289.113-.244.19-.22.319-.264.586-.313.8-.249.435-.337.44-.979.944-.294.406-.19.377-.142.5-.059.366-.043,1.189.088,1.365.47,2.7.039.954-.025.367-.082.347-.171.264-.191.141-.2.084-.206-.01-.152-.089-.161-.171-.117-.215-.089-.279-.053-.337.039-.807.147-.769.343-1.55.161-.91.044-.719-.082-.743-.176-.729-.289-.846-.176-.651-.127-.875-.078-.685-.108-.514-.2-.529-.294-.5-.308-.376-.362-.279-.279-.146-.347-.089-.147-.025-.441.025-.381.1-.406.191-.464.351-.725.641-.553.367-.455.22-.724.235-1.18.269-.523.2-.4.274-.479.489-.324.47-.22.406-.161.489-.128.592-.029.866.014.66v1.169l-.122,1-.132.47-.8,1.829-.269.9-.044.043-.048-.245-.083-.489-.367-1.106-.23-.533-.264-.773-.176-.808-.1-.768-.1-1.673-.083-.512-.1-.241-.186-.176-.156-.053-.192.025-.166.088-.147.157-.162.337-.147.553-.239,1.571-.191.67-.279.646-.127.278-.28.744-.117.494-.048.156-.074.1-.137.015-.108-.1-.088-.25-.162-.606-.469-1.194-.113-.44-.132-1-.019-.9-.064-.2-.1-.128-.157-.064-.176.049-.132.172-.1.215-.162.557-.1.852-.054.543-.064.5-.479,1.942-.406,1.527-.264,1.345L96,295.694l-.03.91.044.91.113.984.025.112.034.318.367,2.04.3,1.624.112,1.135-.024.611-.093.539-.181.514-.191.289-.083.072-.25.192-.3.1Z" transform="translate(-93.214 -218.479)"/><path class="c" d="M125.933,319.339l-.143-.009v-.039l.128-.01.039.025-.024.033Z" transform="translate(-98.237 -232.351)"/><path class="c" d="M118.888,314.772h-.411l-.094-.054-.2-.328-.083-.25-.083-.655.024-.46-.053-.108-.093-.058-.377-.078-.127-.1-.22-.366-.082-.274.019-.176.078-.108.156-.122.025-.138-.127-.352.034-.078L117.5,311l.592-.083.117-.059.049-.117-.034-.1-.093-.054-.382.015-.426.054-.137-.034-.069-.137.01-.211.043-.073.079-.019.249.025.2-.084.22-.171.293-.387.039-.107-.024-.21-.147-.489-.308-.641-.186-.3-.147-.259-.22-.328-.054-.146.025-.294.035-.161-.021-.177-.107-.2-.205-.264-.47-.469-.215-.221-.313-.322-.108-.039-.318.02-.136-.084-.147-.015-.235.035-.245-.084-.357-.171-.5-.166-.068-.059v-.084l.122-.072.876-.24.127-.1v-.136l-.068-.084-.152-.015-1.052.289-.156.01-.112-.054-.147-.141-.137-.054-.225.025-.343.1-.357.024-.469-.029-.318.083-.415.2-.5.123-.352.131-.074.1-.063.25-.123.072-.376.079-.054.039-.049.24-.142.141-.01.172v.112l-.088.113-.411.181-.141.146-.255.378-.273.234-.647.475-.235.259-.175.3-.192.432-.093.248-.205.314-.034.094.024.176.142.293.064.211.171.2.083.19-.024.093-.073.035-.314-.064-.5-.142-.215-.011-.108.055-.049.088.034.1.264.1.866.269.082.068.025.127-.014.19.039.094.143.186-.015.112-.113.113-.46.225-.142.143-.1.278-.048.226-.078.062-.142-.024-.44-.206-1.492-.836-1.541-1-.866-.616-.679-.568-.069-.138.014-.2.1-.278.078-.053.142.025.993.45h.152l.064-.094-.01-.156-.083-.1-1.105-.534-.118-.122-.019-.059.03-.91-.054-.675.034-.122.108-.039.307-.014h.352l.837-.059.093-.039.073-.108-.009-.1-.083-.069-.206-.01-1.468.044-.1-.039-.069-.107-.2-.686-.22-.528-.02-.094.039-.092.333-.221,2.187-1.237.191-.172.014-.1-.054-.079h-.127l-.357.176L101,303.433l-.485.264-.142.025-.108-.069-.21-.333-.514-.631-.6-.557-.47-.357-.039-.078.054-.436.152-.929.053-.415.059-.122.039.039.3,1.248.235.655.381.7.367.466.294.308.078.054.078-.01.108-.411.215-.406.235-.66.24-.812.234-.513.171-.333.337-.851.138-.607.088-.611.044-.079.054.044.1.479.044.47.2.984.381,1.11.2.494.161.563.1.7.024.728-.039.475-.171.94-.509,1.815-.2,1.258v.406l.059.44.127.416.176.367.215.279.265.22.289.146.235.054.411-.015.318-.112.3-.19.265-.28.191-.288.176-.46.1-.489v-.6l-.093-.846-.465-2.588-.03-.294.015-.719.171-.764.337-.832.436-.89.367-1,.171-.729.118-.881.014-.924-.029-.279.015-.733.083-.47.1-.391.147-.289.265-.337.279-.25.464-.279.773-.294.861-.269.734-.352.553-.352,1-.759.523-.323.362-.146.265-.054.269.025.328.117.127.1.206.294.132.356.269,1.654.25.759.391.827.118.372.092.7v.567l-.1.787-.265,1.223-.142.475-.205.885-.078.641v.832l.1.534.191.489.206.346.264.294.348.25.3.117.225.039.391-.025.4-.117.245-.147.279-.249.22-.3.176-.391.127-.485.044-.367-.029-.645-.157-1.048-.607-2.813-.029-.264.014-.865.084-.5.117-.3.19-.3.25-.264.758-.592.352-.352.294-.435.176-.348.21-.64.176-.289.127-.117.157-.034.166.063.205.2.234.372.236.553.263.979.205,1.017.123.661.234.768.28.734.308.631.112.2.241.48.714,1.3.778,1.7.309.88.264,1.159.107.759.015.714-.078.352-.069.058h-.145l-.251-.117-.176-.172-.063-.167-.074-.318-.126-.162-.157-.083-.157.025-.45.279-.263.259-.308.19-.676.226-.367.245-.244.053-.274-.01L121,306.44l-.1-.113-.132-.347-.015-.367.073-.382-.034-.167-.274-.234-.181-.074-.166-.019-.382.024-.381-.073-.239.025-.788.273-.308-.009-.108.073-.064.1h-.068l-.133-.3-.136-.333-.069-.083-.127-.015-.108.069-.034.136.352,1.052.034.216-.034.171-.235.309-.044.141.048.1.26.191.205.108.133.157.191.645.308,1.238.273,1.325-.014.425.054.138.1.131.161.749.328,2.113.078.744-.053.108-.254.068-.22.015Z" transform="translate(-93.879 -227.988)"/><path class="c" d="M123.965,318.811l-.112-.054-.034-.108-.058-.734.034-.02.19.172.171.054.47.029.249-.043.05.024-.011.112-.122.245.014.186-.113.054-.538.069-.191.015Z" transform="translate(-97.914 -232.13)"/><path class="c" d="M125.7,318.441l-.165-.025-.025-.092.069-.157.449-.7.118-.2.294-.322.264-.186.333-.177.108.009.1.074.04.1-.025.191-.117.21-.3.425-.265.46-.278.274-.494.1-.1.015Z" transform="translate(-98.192 -231.922)"/><path class="c" d="M123.677,317.061h-.044l-.1-.519-.293-1.9-.093-.387.793-.194.44-.093,1-.24.186.024.156.157.039.157-.053.293.063.181.142.132.161.122.049.1-.078.2-1.067,1.12-.24.425-.176.171-.254.084-.427.015-.137.054-.068.092Z" transform="translate(-97.817 -231.467)"/><path class="c" d="M106.195,315.863l-.352-.024-.289-.074-.23-.146-.484-.348-.206-.136-.748-.626-.142-.054-.455.073-.181-.068-.352-.293-.954-.895-.426-.466-.078-.137.064-.01.9.632.352.259,1.605,1.1.719.4.934.524.353.181.034.054-.069.053Z" transform="translate(-94.336 -231.296)"/><path class="b" d="M123.88,315.482l-.156-.039-.172-.157-.048-.142.02-.127.127-.142.2-.088.454-.088.27-.01.151.054.063.121-.048.264-.074.2-.107.053-.3-.049-.376.152Z" transform="translate(-97.873 -231.619)"/><path class="c" d="M123.173,313.337l-.186-.01-.084-.1-.278-1.252-.245-1.121.011-.137.141.015.26.049.215-.02.1-.049.132-.1h.152l.347.083.133.079.117.142.211.445.215.244.01.157-.015.221.068.151.171.161.108.338.156.176v.074l-.161.073-.813.206-.763.171Z" transform="translate(-97.694 -230.971)"/><path class="c" d="M105.258,311.5l-.22-.025-.21-.118-.132-.141-.117-.274-.039-.279.03-.6.156-1.067.529-2.661.029-.039.039.073.416,3.067.034.656-.015.675-.083.367-.132.215-.152.113-.132.039Z" transform="translate(-94.852 -230.283)"/><path class="c" d="M100.269,310.771l-.122-.039-.22-.232-.6-.791-.543-.818-.225-.346-.421-.655-.5-.906-.162-.441-.024-.2.083-.386.293-.886.216-.577.093-.259.093-.044.127.035.465.352.294.318.5.631.279.456.279.581.22.612.117.485.108.719.019.8-.063.651-.167.758-.088.167-.049.025Z" transform="translate(-93.723 -229.946)"/><path class="c" d="M137.525,308.661l-.225-.025-.2-.049-.231-.025-.126-.112-.075-.128-.015-.1.07-.107.1-.044.21-.049.186-.215.191-.19.783-.586.084-.015.03.009-.015.108-.207.319-.287.3-.069.166.025.136.112.089.186.025.495-.143.186-.131.675-.788.039-.112.039-.177.147-.268.156-.117.172-.039.2-.02.084-.048.048-.132v-.347l.118-.2.333-.225.161-.128.367-.122.322-.221.112-.067.162-.039.411-.025.285-.089.1-.053.136.015.089.137.014.186-.112.142-.323.177-.293.121-.3.22-.573.833-.279.25-.176.087-.24.011-.113-.006-.186.074-.279.264-.19.259-.352.543-.167.308-.126.148-.2.072-.3.064-.146-.048-.2-.127h-.158l-.2.131-.1.069-.258.054-.1.015Z" transform="translate(-99.967 -230.022)"/><path class="c" d="M150.047,306.735l-.093-.034-.034-.132.015-.24.025-.284-.039-.171-.186-.2-.118-.118-.039-.1.01-.163.132-.283.127-.206.049-.249-.034-.225-.147-.288-.176-.167.01-.268.239-.646.055-.278-.055-.122-.126-.118-.313-.235-.128-.161v-.127l.118-.209.287-.5.207-.461-.015-.2-.084-.063-.088.034-.206.347-.2.382-.307.425-.123.088-.108-.01-.273-.161-.279-.034-.123-.074-.073-.176-.162-.744-.053-.42-.015-.778.087-.7.23-.811.333-.979.083-.367.044-.777.068-.274.206-.347.215-.177.171-.053.187.024.186.1.146.181.162.3.162.528.053.377v.91l-.073.969-.069.484-.02.5.138,1.3.107.519.187.646.205,1.076.092.983.015,1.091-.054.929-.053.186-.4.671-.093.084Z" transform="translate(-101.731 -228.464)"/><path class="c" d="M133.061,308.679l-.137-.039-.322-.22-.221-.172-.126-.024-.324.1-.308-.01-.078-.059-.054-.21-.01-.534.064-.19.093-.054.366.03.191-.015.259.054.126.1.309.547.137.269.112.231v.127l-.079.062Z" transform="translate(-99.143 -230.438)"/><path class="c" d="M133.793,305.927l-.142-.01-.112-.136-.588-1.038-.063-.19.034-.2.118-.2.171-.133.186-.034.318.014.157-.072.357-.553.215-.2.068-.025.367.01.079-.049.029-.121-.1-.153-.225-.131-.191-.054-.23.025-.24.049-.314-.01-.3-.128-.152.016-.2.132-.264.245-.215.146-.4.025-.065-.035-.048-.19-.1-.089-.025-.053.025-.157.75-1.6.449-1.115.279-.945.133-.641.151-1.026.108-1.977.053-1.555.117-.608.132-.47.25-.533.279-.362.294-.25.342-.161.382-.1h.4l.357.069.4.146.465.309.337.351.383.583.621,1.164.323.479.292.337.569.5.621.456,1.116.635.831.543.4.382.322.455.25.549.069.366.044.764-.084.812-.072.367-.055.059-.083.01-.22-.015-.146.015-.222-.015-.586.141-.1-.02-.011-.107.177-.24.773-1,.352-.514.053-.156-.024-.2-.088-.048-.1.063-.454.572-.828,1.081-.226.2H141.4l-.217-.171-1.525-1.561-1.718-1.893-.2-.245-.964-1.189-.123-.245.021-.108.186-.181.557-.48.636-.576.072-.148-.048-.141-.094-.025-.093.054-.915.788-.464.351-.157.039-.094-.049-.5-.617-.4-.543-.245-.343-.3-.449-.082-.127-.079-.108-.088-.016-.084.074-.039.094.025.146.156.274,1.209,1.639.157.19.048.127-.123.152L134.84,296l-.743.578-.1.151v.157l.039.039.118-.01.236-.151.929-.729.509-.41.338-.24.126-.044.094.034.234.273.945,1.16.259.292.709.823,2.085,2.26.1.088.367.372.034.1-.029.054-.837.2-.2.01-.234-.059-.347-.009-.187-.089-.2-.142-.131-.039-.236.024-.508.19-.245.133-.118.126-.468.608-.177.126-.22.123-.22.245-.087.2-.055.21.024.245.089.171.143.118.126.039.675-.044.079.039.034.1-.191.612-.019.346-.1.123-.616.484-.1.039-.156-.024-.363-.143-.361-.084-.26.011-.186.088-.145.2-.343.666-.113.112-.141.025-.279-.1-.156.024-.328.172-.132.053Z" transform="translate(-99.215 -227.891)"/><path class="b" d="M107.438,305.932l-.225-.008-.1-.059-.034-.1.049-.1.24-.069,1.365-.141,1.492-.25.083-.058.015-.132-.176-.534-.5-1.277-.514-1.09-.318-.632-.342-.768-.093-.088-.093-.01-.186.049-.079-.039-.014-.1.088-.142.1-.117.01-.127-.015-.161.053-.1.1-.01.2.181.156-.025.979-.567.782-.416,2.285-1.332,1.79-1.046.235-.177.035-.112-.079-.24-.352-.631-.626-.978-.205-.328-.352-.553-.05-.142.02-.107.078-.048.092.019.206.245.675.97.66,1.1.21.387.128.126.137-.014.6-.333.166-.015.084.094-.01.131-.093.108-.509.313-.1.113-.025.156.112.254.758,1.41.177.392.029.186-.06.127-.068.034-.088-.049-.191-.3-.841-1.663-.191-.274-.112-.015-.387.176-.523.319-.382.21-.186.127-.166.063-1.922,1.111-2.588,1.457-.083.089.015.156.656,1.307.4.885.318.764.514,1.487v.127l-.142.171-.064.206-.166.058-1.747.259-1.086.117Z" transform="translate(-95.256 -228.22)"/><path class="c" d="M111.771,308.018l-.122-.024-.039-.079.02-.1.083-.053.161-.039.171.009.044.054-.02.088-.2.1-.1.039Z" transform="translate(-95.978 -230.51)"/><path class="b" d="M122.219,304.25l-.094-.039-.024-.138.053-.107.309-.133.587-.225,1.541-.675,1.541-.749.612-.333h.117l.074.083.014.1-.06.087-.391.236-1.863.911-1.321.586-.979.367-.116.025Z" transform="translate(-97.649 -229.575)"/><path class="b" d="M110.964,287.12l-.122-.064-.039-.1-.018-4.315.044-.108.142-.054h2.856l.123.054.053.181-.008.617-.049.122-.093.054h-1.746l-.181.054-.053.151.007.367.049.108.181.054h1.35l.108.053.044.122,0,.714-.039.123-.093.058-1.4.014-.152.054-.054.137.015.441.053.092.123.039h1.751l.167.054.044.063v.763l-.053.094-.094.039-2.92.015Z" transform="translate(-95.847 -226.489)"/><path class="b" d="M129.842,287.05l-.829-.015-.108-.049-.048-.122-.011-3.263-.05-.113-.112-.048-.96-.02-.1-.068-.04-.142v-.651l.04-.079.166-.053,3.317-.015.2.053.053.069v.744l-.074.123-.153.039-.962.014-.107.054-.041.108L130,286.889l-.048.107-.113.054Z" transform="translate(-98.523 -226.478)"/><path class="b" d="M133.939,287.035h-.631l-.123-.054-.049-.131-.018-4.241.025-.127.077-.053h.775l.136.053.054.138v1.291l.039.2.1.058,1.59.01.167-.053.048-.132.01-1.453.049-.074.138-.048h.721l.126.053.055.1.017,4.241-.044.146-.094.054-.826-.015-.079-.053-.039-.157v-1.335l-.039-.157-.107-.054H134.3l-.063.064-.034.171.012,1.381-.039.093-.122.068-.117.015Z" transform="translate(-99.405 -226.478)"/><path class="b" d="M115.882,287.082l-.092-.04-.024-.049,1.418-4.379.1-.143.1-.039,1.129.012.152.053.088.129,1.747,4.28-.015.113-.108.054-.808.008-.239-.054-.088-.113L119,286.2l-.116-.078h-1.593l-.147.073-.224.709-.074.109-.194.067Zm2.551-2.1.076-.054-.024-.114-.485-1.3h-.053l-.421,1.282-.044.125.077.058.874.008Z" transform="translate(-96.64 -226.482)"/><path class="b" d="M125.179,287.052l-.135-.054-.93-1.33-.137-.1-.538.009-.04.045-.024.114.01,1.12-.034.122-.137.064h-.778l-.108-.055-.049-.117-.016-4.259.059-.136.122-.04h2.193l.416.068.3.118.275.19.235.274.161.352.055.274-.035.435-.063.255-.147.284-.249.309-.275.22-.019.082,1.018,1.629-.02.078-.108.039-1,.014Zm-.791-2.568.186-.069.156-.131.078-.148.029-.245-.078-.219-.2-.161-.29-.068-.747-.01-.113.053-.04.113,0,.753.039.094.137.054h.749l.088-.015Z" transform="translate(-97.675 -226.481)"/><path class="b" d="M121.91,280.1l-.122-.054-.039-.122-.017-4.218.054-.122.093-.039.735-.008.156.054.049.092.006,1.36.049.157.107.054h1.541l.123-.039.058-.1v-1.346l.015-.136.069-.069.112-.025h.75l.151.054.049.176.011,4.129-.055.152-.151.054-.8-.007-.107-.049-.039-.112L124.7,278.5l-.058-.092-.181-.039h-1.453l-.108.039-.054.121v1.365l-.054.152-.181.054Z" transform="translate(-97.591 -225.383)"/><path class="b" d="M118.619,280.115h-.807l-.122-.053-.039-.094-.011-3.253-.05-.126-.167-.054H116.4l-.094-.069-.039-.185v-.544l.054-.122.122-.053,3.561-.015.133.039.058.126,0,.749-.121.088-.191.025-.965-.014-.093.039-.044.073v3.282l-.034.089-.122.068Z" transform="translate(-96.721 -225.386)"/><path class="b" d="M131.331,280.069l-2.759.012-.151-.054-.05-.147-.012-4.2.045-.108.136-.053H131.3l.166.054.053.107-.009.7-.047.1-.117.058-1.661.008-.153.053-.039.078-.01.319.043.161.074.054.156.025,1.262-.015.137.054.049.117v.761l-.064.1-.136.049h-1.335l-.123.054-.039.122.009.387.069.088.084.025h1.76l.136.053.04.108v.82l-.094.083-.19.025Z" transform="translate(-98.646 -225.38)"/><path class="b" d="M112.4,273.59l-.5-.024-.47-.1-.333-.132-.465-.293-.308-.294-.25-.376-.19-.484-.093-.451-.019-.425.069-.46.146-.445.192-.362.234-.309.352-.309.347-.2.484-.161.376-.069.382-.015.641.069.548.161.2.118.069.1.03.115v.816l-.059.1-.084.02-.567-.279-.5-.112-.367-.015-.367.053-.318.147-.23.161-.205.245-.132.289-.083.352.01.342.088.338.19.312.245.23.28.163.381.117.436.025.411-.069.333-.146.323-.2.107-.069.064.015.044.087.009.769-.054.172-.156.156-.333.161-.528.143-.382.044Z" transform="translate(-95.687 -224.29)"/><path class="b" d="M124.43,273.233h-1.189l-.092-.039-.074-.122L121.724,269l-.024-.2.049-.064.231-.057.63.018.137.039.088.167.915,3.009.068.077h.088l.034-.067.924-2.956.113-.215.166-.091.65.007.2.054.034.079-.049.235-1.379,4.128-.079.059-.087.025Z" transform="translate(-97.585 -224.286)"/><path class="b" d="M128.084,273.2l-.108-.039-.1-.13V268.8l.039-.094.079-.058.131-.025,2.759-.015.152.054.039.093v.673l-.051.168-.141.057-1.727.007-.079.054-.035.113v.4l.035.117.152.054,1.364.011.167.054.053.122.006.742-.079.059-.132.025H129.2l-.108.039-.058.088.008.445.055.138.107.039,1.811.012.1.058.039.122v.688l-.054.107-.107.039-2.907.015Z" transform="translate(-98.569 -224.279)"/><path class="b" d="M117.919,273.409l-.514-.015-.382-.068-.4-.177-.318-.2-.352-.324-.294-.436-.191-.455-.083-.45v-.645l.113-.47.161-.387.323-.456.352-.322.314-.191.367-.147.6-.113.573.016.47.112.509.219.436.353.263.332.133.245.161.441.082.47v.47l-.082.5-.161.415-.264.421-.251.265-.318.219-.4.191-.456.132-.391.054Zm.161-1.043.362-.112.219-.146.231-.265.145-.3.084-.376,0-.392-.092-.382-.207-.333-.277-.264-.3-.162-.367-.068-.293.015-.338.1-.288.176-.23.25-.176.314-.083.381.015.456.1.318.191.333.25.219.254.147.382.1.352.01.073-.016Z" transform="translate(-96.579 -224.271)"/><path class="b" d="M136.972,273.15l-.936-.01-.153-.058-.652-1.111-.128-.161-.172-.054h-.425l-.122.05-.05.108-.005,1.09-.052.093-.094.04h-.719l-.152-.054-.043-.1v-4.3l.077-.068.162-.024h1.964l.525.063.249.078.288.176.22.23.153.269.111.392.035.3-.021.344-.117.333-.146.244-.2.2-.293.22-.02.093.823,1.38.044.152-.054.064-.1.024Zm-1.7-2.436.245-.068.187-.142.1-.172.039-.279-.069-.2-.117-.126-.182-.089h-1.02l-.108.054-.04.092.009.742.039.137.108.054Z" transform="translate(-99.428 -224.276)"/><path class="c" d="M109.882,263.692l-.377-.025-.362-.117-.294-.23-.132-.19-.117-.254-.1-.446.01-.44.117-.558.147-.356.411-.676.44-.484.275-.249.8-.572.934-.5.945-.382,1.33-.323.7-.1.968-.028.793.082.645.133.656.191.733.323.509.292.675.514.528.529.279.391.01.069-.137-.069-.5-.347-.763-.382-.715-.25-.66-.141-.822-.1-.792.014-.783.143-.68.2-.675.323-.6.367-.367.324-.47.522-.6.911-.563,1-.381.425-.319.235-.376.161-.323.069Z" transform="translate(-95.483 -222.553)"/><path class="c" d="M136.619,263.382l-.368-.009-.319-.089-.435-.279-1.085-.969-.768-.67-.392-.313-.352-.289-.842-.571-.523-.279-.847-.353-.724-.161-.713-.084-.469.015-.578.113-.724.235-.157.058-.048-.02.133-.142.323-.22.748-.4.67-.279,1.033-.279.626-.112.646-.073,1.129.03.823.1.856.19.621.235.557.264.524.337.7.588.425.464.308.514.167.4.1.387.009.426-.068.357-.117.283-.216.289-.293.191-.361.112Z" transform="translate(-98.473 -222.625)"/><path class="b" d="M128.5,263.6l-.108-.025-.117-.156-.181-.338-.236-.323-.259-.22-.391-.2-.323-.083-.294-.015-.352.053-.078-.02-.025-.108.055-.108.215-.177.333-.162.263-.067.338-.015.376.082.28.172.2.2.147.23.094.314.087.895-.024.069Z" transform="translate(-98.292 -223.17)"/><path class="c" d="M120.721,258.745l-.152-.112-.445-.436-.66-.542-.67-.47-.744-.367-.7-.25-.9-.22-.641-.083-.337-.03-.851.015-.827.127-1.037.279-.989.376-.391.084-.328-.025-.284-.1-.2-.162-.1-.166-.063-.279.048-.392.147-.367.22-.319.289-.248.411-.28.45-.22.6-.191.724-.157.411-.044.865.015.886.157.769.264,1.066.529.837.544.719.543.807.791.454.544.485.759.152.327.009.069-.019.039Z" transform="translate(-95.784 -221.98)"/><path class="c" d="M126.754,258.486l-.039-.025.138-.318.514-.719.979-1.062.719-.568.872-.571.948-.5.939-.338.716-.141.351-.044.734.015.43.084.309.131.294.186.2.21.147.259.053.23-.009.274-.133.3-.205.264-.342.191-.543.162-.557.053-2.245.132-.828.127-.566.147-.749.25-.554.235-.807.455-.7.538-.069.039Z" transform="translate(-98.384 -221.985)"/><path class="c" d="M126.336,257.121l-.034-.019.015-.21.221-.9.293-.934L127.3,254l.528-.968.352-.494.631-.7.273-.264.456-.353.468-.293.584-.235.352-.083.529.015.3.1.259.2.148.186.094.283.019.3-.085.259-.19.289-.337.323-.528.337-.777.4-.69.342-.513.338-1.023.762-.632.617-.411.508-.455.725-.254.465-.064.067Z" transform="translate(-98.319 -221.412)"/><path class="c" d="M121.653,257.1l-.092-.094-.475-.749-.367-.484-.69-.719-.9-.733-.993-.631-1.636-.89-.4-.294-.25-.274-.176-.333-.069-.25.01-.328.132-.3.186-.186.23-.132.249-.068.352-.015.47.1.612.293.582.368.8.7.6.65.661.9.4.686.308.7.263.832.206.851.025.323-.03.074Z" transform="translate(-96.615 -221.415)"/><path class="c" d="M120.418,241.669l-.121-.025-.191-.186-.147-.205-.039-.142.01-.259.073-.337.455-1.057.587-1.007.984-1.425,1.144-1.35.5-.533.7-.7,1.115-.97,1.551-1.173,1.116-.69,1.158-.646.926-.4.611-.127.229.039.245.206.087.152-.014.1-.112.1-1.062.475-1.065.6-.573.377-.278.181-1.116.807-.308.259-.924.753-1.233,1.1-1.028,1.13-.269.319-.479.562-.9,1.2-.631.969-.719,1.3-.21.5-.079.093Z" transform="translate(-97.302 -218.201)"/><path class="c" d="M117.136,239l-.19-.011-.152-.117-.9-1.011.125-.525-.015-.215-.079-.151-.469-.543-.866-.969-2.041-2.2-2.172-2.349-.822-.924-.274-.283-.161-.245-.035-.21.064-.426.235-.812.381-.949.469-.939.456-.8.47-.7,1.013-1.335.631-.69.778-.749.553-.47.822-.631,1.179-.749,1.243-.645.993-.411.778-.264.454-.1.441-.014.244.068.172.132.836.91.25.289.842.939.479.533,2.03,2.211.42.431.241.288,1.893,2.026.166.1.163.02.366-.068.22.009.153.1.307.333.182.234.2.235.025.127-.084.215-.148.362-.126.059-.583.181-1.271.571-.778.425-1.859,1.233-.924.734-1.209,1.086-1.037,1.042-.754.89-.479.6-.749,1.032-.749,1.2-.381.709-.235.534-.152.46-.055.054-.171.039-.2.025-.157.063Z" transform="translate(-95.576 -216.308)"/><path class="c" d="M115.944,241.959l-.092-.054-.323-.337-.166-.23-.715-1.013-.5-.8-.367-.67-.108-.284v-.048l.123.039.646.63,1.057,1.2.205.333.034.182-.078.435.063.205.23.338,0,.068Z" transform="translate(-96.306 -219.489)"/><path class="b" d="M117.053,236.8l-.337-.01-.377-.1-.411-.22-.406-.323-.528-.557-.616-.8-.426-.709-.225-.557-.128-.479-.039-.451.049-.406.122-.475.289-.6-.014-.146-.25-.392-.567-.734-.284-.41-.553-.724-.107-.22.035-.181.234-.407.205-.288.123-.025.092.054.69.846,3.2,4.153.915,1.218.494.631.367.484.039.113-.01.142-.425.713-.323.4-.26.22-.288.161-.279.084Z" transform="translate(-96.08 -217.745)"/><path class="c" d="M117.363,236.2l-.254-.01-.308-.132-.294-.235-.367-.4-.557-.778-.22-.416-.132-.4-.025-.142.01-.273.073-.22.059-.069h.112l.162.171,1.878,2.4.117.22-.015.094-.1.112-.142.069Z" transform="translate(-96.551 -218.628)"/><path class="b" d="M119.264,233.929l-.108-.053-1.076-1.923L116.9,229.9l-1.452-2.642-1.086-2.05-.025-.146.1-.2.309-.368.142-.131.147-.132.122-.034.128.063.381.368.235.25,2.867,2.993.485.479.053.01-.029-.1-.779-1.242L116.39,223.8l-.22-.391v-.156l.162-.2.528-.4.225-.094.108.02.484.4.278.275,4.272,4.084L123.973,229l.1.152-.024.122-.273.22-.5.323-.138.035-.142-.064-.264-.259-.886-.91-.421-.416-.352-.382-.264-.274-1.409-1.471-.778-.847-.162-.088.044.132.22.377.831,1.306,1,1.614.465.7.415.661.538.837.039.156-.069.137-.646.6-.108.054-.113-.025-.22-.2-1.2-1.268-.7-.777-2.207-2.285-.117-.079-.01.054.132.284,1.464,2.456,1.688,3,.064.21-.074.152-.489.6-.136.083Z" transform="translate(-96.412 -216.948)"/><path class="c" d="M108.389,228.627l-.108-.039-.235-.274-.068-.172.014-.323.069-.353.294-.851.367-.832.557-.993.9-1.336.211-.312.45-.524.343-.425.142-.148.8-.851.381-.367.319-.269.415-.362,1.052-.778,1.086-.66,1.062-.572,1.008-.441.842-.264.548-.1.245.01.141.058.28.274.048.108-.044.054-.846.166-.983.337-1.287.6-.91.5-1.271.851-.93.748-.656.587-.69.735-.954,1.169-.631.885-.749,1.213-.557,1.1-.309.793-.284.983-.063.069Z" transform="translate(-95.4 -216.121)"/><path class="b" d="M125.656,228.228l-.444-.068-.391-.147-.387-.235-.807-.7-.28-.319-.034-.092.048-.1.217-.146.523-.279.132-.01.123.069.264.259.254.235.318.205.309.078.166-.034.126-.1.05-.181-.079-.22-.249-.289-.275-.235-.586-.367-.759-.367-1.331-.562-1.218-.6-.714-.484-.382-.377-.293-.4-.161-.4-.069-.362.025-.337.087-.3.191-.294.26-.235.313-.146.445-.1h.47l.367.083.509.205.67.44.5.456.108.177-.048.112-.333.19-.421.177-.146.011-.181-.113-.358-.319-.357-.2-.323-.083-.215.039-.127.112-.059.156.014.177.1.2.259.264.5.338.578.309.273.1.132.048.142.084,1.346.563.7.351.7.425.44.353.323.337.279.4.152.322.1.4.009.313-.053.273-.147.274-.215.255-.294.2-.348.147-.264.053-.177.015Z" transform="translate(-97.271 -216.633)"/><path class="c" d="M132.35,226.438l-.135-.1-.28-.245-.186-.082-.21.024-.157.049-.171-.025-.289-.264-.621-.671-1.112-1.179-.053-.122.157.025.743.455.984.719.792.7.514.572.043.112-.02.025Z" transform="translate(-98.77 -217.147)"/><path class="b" d="M142.673,328.3a2.966,2.966,0,1,1-2.965,2.965A2.966,2.966,0,0,1,142.673,328.3Zm0,5.275a2.319,2.319,0,1,0-2.109-2.309,2.153,2.153,0,0,0,2.109,2.314Zm-1.19-3.969h1.24c.839,0,1.316.247,1.316.986,0,.6-.362.838-.873.879l.873,1.429h-.724l-.788-1.4h-.338v1.4h-.706Zm1.281,1.356c.338,0,.568-.057.568-.435,0-.338-.362-.379-.64-.379h-.5v.814Z" transform="translate(-100.454 -233.788)"/><path class="c" d="M129.24,325.487l-.163-.011v-.045l.147-.011.045.028-.028.039Z" transform="translate(-98.761 -233.328)"/><g transform="translate(65.009 17.747)"><path class="d" d="M185.562,236.991c-4.6,0-9.964,2.071-9.964,7.9,0,3.8,2.655,5.26,5.223,6.672,2.1,1.154,4.088,2.246,4.088,4.558,0,3.042-2.719,4.4-5.413,4.4a16.2,16.2,0,0,1-6.56-1.769c-.118.386-1.165,3.79-1.275,4.146a22.964,22.964,0,0,0,7.523,1.433c3.313,0,11.02-.852,11.02-8.752,0-4.119-2.921-5.811-5.5-7.306-1.961-1.137-3.814-2.211-3.814-4.194,0-2.271,2.406-3.287,4.789-3.287a13.271,13.271,0,0,1,5.535,1.322c.106-.369,1.065-3.654,1.169-4a19.141,19.141,0,0,0-6.821-1.123Z" transform="translate(-170.552 -236.991)"/><path class="b" d="M199.116,243.706H203.4l-1.807,8.489h8.635l1.807-8.489h4.288l-4.47,21.01H207.57l1.959-9.21h-8.635l-1.96,9.21h-4.288Z" transform="translate(-174.213 -238.06)"/><path class="b" d="M223.929,243.706h12.586l-.642,3.31h-8.361l-1.1,5.179h7.472l-.673,3.311h-7.5l-1.255,5.9H232.9l-.734,3.312h-12.74Z" transform="translate(-178.16 -238.06)"/><path class="b" d="M243.286,243.706h5.054c3.951,0,8.513-.06,8.513,4.967,0,3.611-2.758,5.537-6.247,5.6v.06a2.271,2.271,0,0,1,2.175,1.926l2.051,8.459h-4.5l-1.041-4.938c-.489-2.227-.368-3.792-2.7-3.792h-1.623l-1.867,8.729h-4.287Zm2.45,8.968H247.3c2.3,0,5.085-.691,5.085-3.46,0-2.2-1.93-2.2-3.677-2.2H246.93Z" transform="translate(-181.248 -238.061)"/><path class="b" d="M263.2,243.706h4.288l.643,16.1h.061l7.107-16.1h5.755l.092,16.1h.062l7.561-16.1h4.443l-10.2,21.01h-5.359l-.214-16.8h-.061l-7.534,16.8h-5.3Z" transform="translate(-185.133 -238.06)"/><path class="b" d="M300.85,243.706h4.473l-4.5,21.01H296.35Z" transform="translate(-190.412 -238.06)"/><path class="b" d="M310.855,243.706h5.42l4.563,15.952h.06l3.492-15.952h4.043l-4.626,21.01H318.3l-4.469-16.1h-.062l-3.4,16.1h-4.1Z" transform="translate(-191.99 -238.06)"/><path class="b" d="M335.5,300.774a2.966,2.966,0,1,1-2.966,2.966,2.966,2.966,0,0,1,2.966-2.966Zm0,5.274a2.318,2.318,0,1,0-2.112-2.309,2.153,2.153,0,0,0,2.112,2.309Zm-1.19-3.968h1.239c.839,0,1.317.246,1.317.984a.82.82,0,0,1-.874.88l.874,1.431h-.726l-.786-1.4h-.338v1.4H334.3Zm1.279,1.356c.34,0,.568-.057.568-.436,0-.336-.362-.377-.641-.377h-.5v.813Z" transform="translate(-196.174 -247.15)"/><path class="d" d="M191.742,296.625l-.394-.066s-.106-20.082-.108-20.41h-6.57l-8.411,20.473-.4-.057s-.748-20.1-.76-20.415h-4.76c.022.348,1.565,26.2,1.583,26.511h6.034c.085-.2,8.92-21.358,8.92-21.358l.4.062s.249,20.967.253,21.3h6.1l11.981-26.511H200.7C200.611,276.347,191.742,296.625,191.742,296.625Z" transform="translate(-170.342 -243.228)"/><path class="b" d="M211.465,282.506h4.164l-4.192,21.012h-4.164Z" transform="translate(-176.224 -244.24)"/><path class="b" d="M220.816,282.506h3.992l-3.563,17.7h7.811l-.684,3.31H216.594Z" transform="translate(-177.709 -244.24)"/><path class="b" d="M237.773,282.506h3.993l-3.565,17.7h7.813l-.683,3.31H233.555Z" transform="translate(-180.41 -244.24)"/><path class="b" d="M254.5,282.506h4.162l-4.19,21.012H250.31Z" transform="translate(-183.079 -244.24)"/><path class="b" d="M269.8,282.506h4.419l3.621,21.012h-3.991l-.686-4.817h-8.469l-2.537,4.817h-4.421Zm-3.338,12.884h6.159l-1.254-9.15h-.114Z" transform="translate(-184.261 -244.24)"/><path class="b" d="M288.423,282.506h6.588l1.339,15.142h.058l7.841-15.142h6.645l-4.249,21.012h-4.22l3.762-17.4h-.056l-9.01,17.4H293.3l-1.6-17.4h-.057L288,303.517h-3.8Z" transform="translate(-188.477 -244.24)"/><path class="b" d="M328.942,286.473a9.032,9.032,0,0,0-4.136-1.084c-1.423,0-3.334.6-3.334,2.407,0,3.373,6.785,3.161,6.785,9,0,5.146-3.819,7.012-8.184,7.012a16.077,16.077,0,0,1-5.672-1.172l1.027-3.583A11.331,11.331,0,0,0,320.3,300.5c1.913,0,3.793-1.023,3.793-3.281,0-3.792-6.785-3.191-6.785-8.79,0-4.423,3.592-6.349,7.413-6.349a13.185,13.185,0,0,1,5.161.932Z" transform="translate(-193.287 -244.172)"/></g></g></g></svg>