<svg xmlns="http://www.w3.org/2000/svg" width="44.724" height="44.724" viewBox="0 0 44.724 44.724"><defs><style>.a{fill:#d42452;}</style></defs><path class="a" d="M26.239,29.28l-6.492-1.975a2.1,2.1,0,0,1-1.371-2.047,2,2,0,0,1,1.848-2.11h4.058a3.6,3.6,0,0,1,1.794.487,1.489,1.489,0,0,0,1.776-.144l1.082-1.019a1.459,1.459,0,0,0-.207-2.272,8.011,8.011,0,0,0-4.184-1.362V17.378A1.447,1.447,0,0,0,23.1,15.935H21.659a1.447,1.447,0,0,0-1.443,1.443V18.82a6.316,6.316,0,0,0-6.15,6.438A6.451,6.451,0,0,0,18.5,31.444l6.492,1.975a2.1,2.1,0,0,1,1.371,2.047,2,2,0,0,1-1.848,2.11H20.459a3.6,3.6,0,0,1-1.794-.487,1.489,1.489,0,0,0-1.776.144l-1.082,1.019a1.459,1.459,0,0,0,.207,2.272A8.011,8.011,0,0,0,20.2,41.886v1.461a1.447,1.447,0,0,0,1.443,1.443h1.443a1.447,1.447,0,0,0,1.443-1.443V41.9a6.316,6.316,0,0,0,6.15-6.438A6.451,6.451,0,0,0,26.239,29.28ZM22.362,8A22.362,22.362,0,1,0,44.724,30.362,22.358,22.358,0,0,0,22.362,8Zm0,40.4A18.034,18.034,0,1,1,40.4,30.362,18.052,18.052,0,0,1,22.362,48.4Z" transform="translate(0 -8)"/></svg>